<svg width="89" height="20" fill="none" xmlns="http://www.w3.org/2000/svg"><path fill-rule="evenodd" clip-rule="evenodd" d="m83.687 18.868-2.077-5.636h-2.526v5.636h-4.12V2.436h7.798c2.804 0 5.225 0 5.225 5.46 0 2.216-.606 3.704-1.853 4.544l-.45.304 2.363 6.124h-4.36Zm-4.716-8.866v-3.86h2.886c.568 0 1.897 0 1.897 1.93s-1.33 1.93-1.897 1.93h-2.886Zm-14.165 8.867V6.342h-4.024V2.436h12.266v3.906h-4.025v12.526h-4.217Zm-11.977.097c-2.513 0-5.061-.638-6.228-1.114l1.428-3.464c1.518.457 3.845.692 4.674.692 1.435 0 1.65-.777 1.65-1.24 0-.4-.141-1.116-1.088-1.428-.39-.131-.886-.182-1.459-.24-2.178-.226-4.89-.506-4.89-4.87 0-3.579 1.83-5.175 5.938-5.175 2.27 0 4.502.528 5.603.995l-1.232 3.44c-1.203-.381-2.81-.603-3.888-.603-.346 0-.647.021-.898.063-1.044.186-1.262.786-1.262 1.255 0 .444.194 1.028 1.117 1.288.345.088.755.13 1.23.178 2.255.23 5.341.543 5.341 5.022 0 3.547-1.918 5.2-6.038 5.2h.002Zm-14.117-.102h-7.834V2.44h7.338l.703-.006c.982 0 2.108.074 2.998.62 1.042.64 1.548 1.822 1.548 3.616 0 1.435-.511 2.547-1.563 3.4l-.788.74.99.508c1.535.524 1.858 2.091 1.858 3.314 0 3.721-2.184 4.235-4.546 4.235l-.704-.005Zm-3.826-9.865h2.629c.365.001.72-.014 1.04-.188.291-.16.639-.504.639-1.24 0-1.428-1.22-1.428-1.68-1.428h-2.627v2.856Zm0 6.486V12.63h2.626c.46 0 1.682 0 1.682 1.429 0 .736-.349 1.08-.64 1.24-.32.174-.674.188-1.04.188h-2.627ZM20.56 19.353c-4.633 0-7.87-2.848-7.87-6.926 0-3.86 4.4-10.207 9.368-11.535-1.126 1.126-2.674 2.823-3.537 4.675-1.224 2.627-1.34 6.637-1.233 7.108l.173.76.735-.285a8.77 8.77 0 0 0 2.273-1.314 10.278 10.278 0 0 0 1.273-1.202c1.575-1.751 2.585-4.018 2.748-6.058 2.243 1.5 3.941 4.774 3.941 7.849 0 4.078-3.236 6.925-7.87 6.925v.003ZM.358 18.868V2.436H4.52v12.526h5.446v3.907H.358v-.001Z" fill="#fff"/></svg>