<svg width="184" height="73" fill="none" xmlns="http://www.w3.org/2000/svg"><path d="M94.6 46.56c-4.08 0-7.547-.627-10.4-1.88-2.853-1.28-5-3.013-6.44-5.2-1.44-2.213-2.16-4.707-2.16-7.48 0-2.773.72-5.253 2.16-7.44 1.44-2.213 3.587-3.947 6.44-5.2 2.853-1.28 6.32-1.92 10.4-1.92s7.547.64 10.4 1.92c2.853 1.253 5 2.987 6.44 5.2 1.44 2.187 2.16 4.667 2.16 7.44 0 2.773-.72 5.267-2.16 7.48-1.44 2.187-3.587 3.92-6.44 5.2-2.853 1.253-6.32 1.88-10.4 1.88Zm11.04 8.24c-2.8 0-5.253-.373-7.36-1.12-2.08-.747-3.68-1.827-4.8-3.24-1.12-1.387-1.68-3.027-1.68-4.92v-.4h5.28v.96c0 .453.08.747.24.88.16.16.453.24.88.24h12.2v7.6h-4.76ZM94.6 38.56c1.973 0 3.627-.28 4.96-.84 1.36-.587 2.373-1.373 3.04-2.36.667-.987 1-2.107 1-3.36 0-1.253-.333-2.373-1-3.36-.667-.987-1.68-1.76-3.04-2.32-1.333-.587-2.987-.88-4.96-.88-1.973 0-3.64.293-5 .88-1.333.56-2.333 1.333-3 2.32-.667.987-1 2.107-1 3.36 0 1.253.333 2.373 1 3.36.667.987 1.667 1.773 3 2.36 1.36.56 3.027.84 5 .84ZM128.009 46V26.2h-10.4V18h30.8v8.2h-10.4V46h-10Zm34.782 0V26.2h-10.4V18h30.8v8.2h-10.4V46h-10Z" fill="url(#a)"/><path d="M51.276 34.751c.173.177.533.426.734.766 1.862 3.134 3.698 6.286 5.541 9.432.34.578.673 1.162 1.027 1.731.343.554.508 1.11-.16 1.508-.686.409-1.073-.057-1.392-.602-1.915-3.273-3.833-6.545-5.75-9.816-.324-.554-.68-1.092-.965-1.665-.32-.64.07-1.317.967-1.352l-.002-.002Z" fill="url(#b)"/><path d="M42.07 18.712c-.204.246-.368.617-.633.71-.271.096-.657-.033-.958-.154-.156-.063-.242-.314-.345-.49-2.185-3.717-4.38-7.429-6.53-11.168-.194-.338-.247-.933-.08-1.265.324-.644 1.095-.47 1.564.321 1.47 2.483 2.926 4.972 4.387 7.46.738 1.256 1.477 2.51 2.21 3.77.127.222.22.464.383.816h.002Z" fill="url(#c)"/><path d="M47.445 53.022c2.128 0 4.255.007 6.384-.003.634-.004 1.242.073 1.258.856.015.833-.61.94-1.281.938-4.256-.006-8.511-.004-12.767-.004-.145 0-.292 0-.436-.01-.583-.048-1.016-.391-.892-.938.076-.33.579-.77.919-.797 1.245-.096 2.503-.042 3.756-.042h3.06-.001Z" fill="url(#d)"/><path d="M14.072 54.81c-2.157 0-4.313-.004-6.47.003-.673.001-1.28-.099-1.258-.946.021-.813.649-.85 1.262-.85 4.285 0 8.568.003 12.854-.002.63 0 1.258.079 1.277.848.02.806-.603.951-1.28.95-2.126-.007-4.255-.002-6.381-.004l-.004.002Z" fill="url(#e)"/><path d="M19.368 35.748c-7.27 0-12.964-2.773-12.964-6.314 0-3.54 5.694-6.312 12.964-6.312 7.27 0 12.964 2.773 12.964 6.312s-5.693 6.314-12.964 6.314Zm0-11.575c-6.457 0-11.913 2.409-11.913 5.261 0 2.852 5.456 5.263 11.913 5.263 6.458 0 11.913-2.409 11.913-5.263s-5.455-5.26-11.913-5.26Z" fill="url(#f)"/><path d="M44.361 29.846c4.142-2.397 8.282-4.795 12.437-7.166.202-.115.61-.077.815.055.916.585 1.883.781 2.924.5 1.717-.465 2.742-2.172 2.396-3.943-.324-1.668-1.93-2.819-3.698-2.649-1.682.162-3.03 1.609-2.947 3.332.037.749-.241 1.074-.827 1.404-2.49 1.405-4.956 2.85-7.433 4.278-1.58.911-3.162 1.817-4.774 2.742-.417-.719-.757-1.365-1.156-1.971-.277-.419-.22-.7.103-1.07a151.614 151.614 0 0 0 3.323-3.955c.309-.378.575-.51 1.095-.42 1.4.245 2.72-.426 3.408-1.631.727-1.27.64-2.525-.198-3.699-1.01-1.415-2.975-1.785-4.455-.886-1.51.916-2.045 2.826-1.267 4.448.124.26.3.694.186.838-1.099 1.385-2.255 2.726-3.432 4.124-.153-.212-.245-.321-.316-.444-2.9-5.03-5.805-10.056-8.69-15.096-.174-.308-.246-.713-.251-1.074a327.103 327.103 0 0 1-.006-5.869c.004-.655-.131-1.209-.921-1.191-.734.016-.862.546-.859 1.167.01 1.927.028 3.854-.012 5.78-.01.47-.137.987-.368 1.394-2.12 3.728-4.274 7.435-6.42 11.149-.396.685-.794 1.373-1.199 2.069.633.123 1.244.263 1.83.422 2.348-4.064 4.698-8.136 7.058-12.223l22.207 38.467H8.503c2.391-4.141 4.775-8.273 7.158-12.398-.69 0-1.368-.021-2.036-.062l-.133.232c-2.32 4.027-4.639 8.057-6.976 12.076-.179.306-.49.573-.799.76-1.645 1-3.304 1.976-4.968 2.945-.568.33-.981.746-.596 1.403.394.67.957.472 1.512.137 1.575-.946 3.148-1.9 4.755-2.79.459-.255 1.032-.425 1.555-.426 5.373-.032 10.745-.022 16.118-.018.272 0 .543.037.913.063-.641 1.752-1.221 3.397-1.863 5.017-.078.2-.47.372-.73.39-1.666.113-2.968 1.15-3.27 2.662-.31 1.561.41 3.085 1.772 3.748 1.435.697 3.13.338 4.124-.873 1.03-1.256 1.016-2.89.026-4.288-.18-.256-.289-.706-.196-.99.58-1.742 1.216-3.466 1.868-5.18.084-.221.355-.505.559-.521.806-.06 1.617-.025 2.477-.025v15.214c-.126.07-.25.146-.382.21-1.594.79-2.342 2.253-1.98 3.876.326 1.452 1.726 2.58 3.24 2.605 1.524.026 2.915-1.02 3.318-2.497.432-1.585-.26-3.164-1.843-3.926-.533-.255-.538-.58-.538-1.028.007-4.525.003-9.052.003-13.578v-.877c.843 0 1.544.024 2.241-.01.478-.022.724.138.885.607.58 1.68 1.191 3.35 1.825 5.01.179.467.121.777-.203 1.173-.73.888-.921 1.932-.587 3.048.506 1.689 2.125 2.652 3.893 2.33 1.66-.303 2.815-1.836 2.687-3.57-.126-1.71-1.49-3.017-3.214-3.117-.28-.016-.73-.107-.801-.284-.662-1.673-1.261-3.37-1.9-5.12.307-.032.505-.07.703-.07 5.519-.003 11.038-.01 16.556.015.41.002.859.16 1.22.366 1.646.94 3.272 1.917 4.898 2.892.534.321 1.083.46 1.454-.14.39-.629.053-1.077-.538-1.419a228.422 228.422 0 0 1-4.97-2.945 2.72 2.72 0 0 1-.9-.902c-2.643-4.54-5.26-9.092-7.88-13.642-.11-.188-.192-.39-.323-.662 1.517-.272 2.947-.531 4.378-.785.258-.046.538-.16.773-.1.255.065.546.243.688.46.92 1.404 2.493 1.987 4.037 1.455 1.45-.501 2.352-1.912 2.233-3.488-.119-1.579-1.342-2.831-2.99-3.066-1.442-.205-2.903.721-3.544 2.174-.127.284-.461.606-.75.664-1.742.354-3.495.653-5.253.923-.252.039-.662-.093-.797-.285-.459-.66-.827-1.384-1.214-2.059.086-.109.114-.168.16-.196h.003Zm15.265-11.44a1.572 1.572 0 0 1 1.571 1.629 1.56 1.56 0 0 1-1.575 1.531 1.58 1.58 0 0 1-1.584-1.62 1.605 1.605 0 0 1 1.588-1.54ZM47.16 16.093c.87.018 1.557.703 1.559 1.558.004.86-.77 1.62-1.631 1.6-.899-.018-1.568-.75-1.53-1.669.039-.888.703-1.506 1.602-1.489Zm-24.8 44.921a1.542 1.542 0 0 1-1.497-1.6c.023-.89.79-1.623 1.647-1.572.818.047 1.549.827 1.526 1.629-.023.88-.774 1.572-1.677 1.543Zm9.93 8.072a1.582 1.582 0 0 1-1.516 1.6c-.88.036-1.64-.686-1.647-1.56-.007-.857.673-1.58 1.516-1.614.865-.035 1.636.701 1.646 1.574Zm6.681-11.24c.88.004 1.594.744 1.582 1.636-.012.87-.688 1.53-1.566 1.532-.895 0-1.631-.735-1.603-1.606.025-.811.79-1.563 1.589-1.56l-.002-.001Zm16.386-27.432a1.584 1.584 0 0 1 1.622 1.581c-.005.841-.716 1.575-1.543 1.59a1.596 1.596 0 0 1-1.615-1.6 1.55 1.55 0 0 1 1.536-1.572Z" fill="url(#g)"/><path d="m17.259 33.58-1.398-.153c-.116-.013-.232-.04-.347-.047-.128-.008-.175-.055-.203-.132-.034-.09-.077-.175-.113-.254-.232.058-.446.13-.672.161-.63.086-1.193-.058-1.7-.301-.763-.368-1.303-.876-1.741-1.437-.694-.89-.848-1.82-.41-2.79.42-.932 1.095-1.758 2.125-2.432.356-.233.766-.41 1.258-.47.703-.082 1.27.098 1.745.444.527.383.792.86.986 1.36.216.553.307 1.117.32 1.69.017.716-.07 1.422-.346 2.114-.04.1-.07.204-.135.295-.103.143-.08.27 0 .415.209.364.401.732.584 1.102.06.128.07.268.101.4l-.054.029v.005Zm-5.424-4.109c.037.23.052.46.115.687.125.432.412.804.938 1.07.525.265 1.105.228 1.559-.091.233-.163.38-.36.482-.576.245-.517.292-1.048.208-1.584-.054-.349-.17-.689-.447-.99-.416-.455-1.136-.532-1.725-.186-.372.22-.654.48-.836.796-.161.28-.249.57-.296.876l.002-.002Z" fill="url(#h)"/><path d="m19.396 27.01-1.864.043v-1.922a18.816 18.816 0 0 1 5.582.34v1.789l-1.796-.179V33.39c0 .161 0 .168-.231.179-.506.024-1.015.043-1.523.064-.05.002-.101 0-.168 0V27.01Z" fill="url(#i)"/><path d="M23.587 27.334v-1.76c.322.095.63.18.932.276 1.354.432 2.533 1.028 3.5 1.818a.26.26 0 0 1 .095.179c.01.26.005.52.005.787l-1.296-.542v.147c0 1.335 0 2.668.003 4.003 0 .083-.03.13-.138.167-.426.14-.85.287-1.274.43-.04.013-.084.02-.144.036v-.149c0-1.648 0-3.297.004-4.946 0-.096-.04-.138-.172-.163-.46-.084-.921-.175-1.38-.262-.044-.01-.09-.016-.135-.025v.004Z" fill="url(#j)"/><defs><linearGradient id="a" x1="84.092" y1="4" x2="194.055" y2="31.903" gradientUnits="userSpaceOnUse"><stop stop-color="#0172BD"/><stop offset="1" stop-color="#08AAAA"/></linearGradient><linearGradient id="b" x1="42.417" y1="31.919" x2="66.911" y2="44.931" gradientUnits="userSpaceOnUse"><stop stop-color="#3671E9"/><stop offset="1" stop-color="#00E0FF"/></linearGradient><linearGradient id="c" x1="25.67" y1="3.137" x2="50.043" y2="16.122" gradientUnits="userSpaceOnUse"><stop stop-color="#3671E9"/><stop offset="1" stop-color="#00E0FF"/></linearGradient><linearGradient id="d" x1="25.881" y1="52.631" x2="26.966" y2="60.331" gradientUnits="userSpaceOnUse"><stop stop-color="#3671E9"/><stop offset="1" stop-color="#00E0FF"/></linearGradient><linearGradient id="e" x1="-7.463" y1="52.641" x2="-6.387" y2="60.307" gradientUnits="userSpaceOnUse"><stop stop-color="#3671E9"/><stop offset="1" stop-color="#00E0FF"/></linearGradient><linearGradient id="f" x1="-16.852" y1="20.491" x2="7.086" y2="61.398" gradientUnits="userSpaceOnUse"><stop stop-color="#3671E9"/><stop offset="1" stop-color="#00E0FF"/></linearGradient><linearGradient id="g" x1="-56.5" y1="-14.5" x2="92.5" y2="94" gradientUnits="userSpaceOnUse"><stop stop-color="#3671E9"/><stop offset="1" stop-color="#00E0FF"/></linearGradient><linearGradient id="h" x1="4.255" y1="24.065" x2="20.547" y2="35.917" gradientUnits="userSpaceOnUse"><stop stop-color="#3671E9"/><stop offset="1" stop-color="#00E0FF"/></linearGradient><linearGradient id="i" x1="12.526" y1="23.273" x2="28.144" y2="31.734" gradientUnits="userSpaceOnUse"><stop stop-color="#3671E9"/><stop offset="1" stop-color="#00E0FF"/></linearGradient><linearGradient id="j" x1="19.521" y1="24.053" x2="32.471" y2="30.746" gradientUnits="userSpaceOnUse"><stop stop-color="#3671E9"/><stop offset="1" stop-color="#00E0FF"/></linearGradient></defs></svg>