<svg width="19" height="20" fill="none" xmlns="http://www.w3.org/2000/svg"><path d="M9.673 19.137h-.001c-2.282 0-4.563.004-6.845 0-1.38-.004-2.27-.881-2.278-2.286-.015-2.868-.007-5.737-.007-8.606 0-1.653-.007-3.306.006-4.96.01-1.552.85-2.382 2.402-2.387 1.578-.006 3.157-.004 4.735 0 .663 0 1.074.359 1.072.915-.003.558-.407.904-1.078.906-1.503.005-3.004.003-4.507.005-.636 0-.797.16-.797.812-.002 4.313-.002 8.626-.001 12.94 0 .677.16.833.838.833l12.948.001c.64 0 .81-.164.812-.805.003-1.482 0-2.964.003-4.446.001-.723.335-1.13.911-1.13.575 0 .91.414.913 1.132.002 1.558.008 3.116-.001 4.674-.01 1.552-.858 2.398-2.394 2.4-2.244.004-4.486 0-6.73 0l-.001.002Z" fill="#fff"/><path d="m16.97 4.146-6.043 6.043c-.215.214-.424.437-.654.635-.432.371-1.01.35-1.385-.033a.979.979 0 0 1-.016-1.386c.572-.608 1.173-1.189 1.765-1.779l3.515-3.504a.819.819 0 0 0-.578-1.4c-.746 0-1.179-.35-1.165-.939.014-.563.435-.889 1.155-.89 1.368 0 2.736-.002 4.104 0 .81.001 1.133.33 1.134 1.142v4.044c0 .769-.319 1.193-.902 1.202-.597.01-.93-.432-.93-1.232V4.146Z" fill="#fff"/></svg>