<svg width="122" height="26" fill="none" xmlns="http://www.w3.org/2000/svg"><path d="M8.903 17.504a8.737 8.737 0 0 1-2.286-.295c-.727-.196-1.315-.446-1.764-.747l.891-2.018c.43.274.926.501 1.49.68a5.54 5.54 0 0 0 1.682.268c.384 0 .688-.032.913-.096.224-.064.389-.155.494-.274a.623.623 0 0 0 .158-.426c0-.21-.101-.378-.303-.502a3.037 3.037 0 0 0-.79-.316 18.47 18.47 0 0 0-1.057-.247 10.71 10.71 0 0 1-1.16-.31 4.428 4.428 0 0 1-1.07-.507c-.32-.21-.579-.485-.775-.824-.197-.338-.295-.764-.295-1.277 0-.567.156-1.084.467-1.55.311-.468.782-.843 1.414-1.126.631-.283 1.418-.426 2.36-.426a8.18 8.18 0 0 1 1.86.213 5.468 5.468 0 0 1 1.613.638l-.824 2.004a5.858 5.858 0 0 0-1.359-.563 5.093 5.093 0 0 0-1.303-.178c-.375 0-.678.04-.906.123-.228.083-.393.188-.494.315a.655.655 0 0 0-.15.412c0 .22.1.392.302.516.202.124.462.224.782.302.32.078.675.158 1.064.24.389.083.776.185 1.16.309.383.123.738.288 1.063.493.326.206.588.476.79.81.202.335.302.753.302 1.257 0 .559-.158 1.073-.473 1.545-.316.472-.79.848-1.421 1.132-.631.284-1.424.427-2.375.427v-.002ZM16.316 17.312V9.858h-2.952V7.704h8.606v2.154h-2.937v7.454h-2.719.002ZM38.625 17.504a8.737 8.737 0 0 1-2.286-.295c-.727-.196-1.315-.446-1.764-.747l.892-2.018c.43.274.926.501 1.49.68a5.542 5.542 0 0 0 1.68.268c.385 0 .69-.032.914-.096.225-.064.39-.155.494-.274a.623.623 0 0 0 .158-.426c0-.21-.1-.378-.302-.502a3.038 3.038 0 0 0-.79-.316c-.325-.087-.677-.17-1.057-.247-.38-.078-.767-.181-1.16-.31a4.428 4.428 0 0 1-1.07-.507c-.32-.21-.58-.485-.776-.824-.196-.338-.295-.764-.295-1.277 0-.567.156-1.084.467-1.55.312-.468.782-.843 1.414-1.126.631-.283 1.418-.426 2.36-.426a8.18 8.18 0 0 1 1.86.213 5.469 5.469 0 0 1 1.613.638l-.824 2.004a5.858 5.858 0 0 0-1.358-.563 5.094 5.094 0 0 0-1.304-.178c-.375 0-.678.04-.906.123-.228.083-.393.188-.494.315a.655.655 0 0 0-.15.412c0 .22.1.392.302.516.202.124.462.224.782.302.32.078.675.158 1.064.24.39.083.776.185 1.16.309.384.123.738.288 1.064.493.325.206.588.476.79.81.2.335.301.753.301 1.257 0 .559-.158 1.073-.473 1.545-.316.472-.79.848-1.42 1.132-.632.284-1.424.427-2.376.427v-.002ZM43.224 12.095v-1.949h5.394v1.95h-5.394Zm4.104 5.34c-.952 0-1.693-.236-2.224-.706-.53-.471-.796-1.183-.796-2.134V8.197h2.609v6.355c0 .284.07.5.213.646.141.147.331.22.57.22.302 0 .568-.079.796-.234l.66 1.811a2.469 2.469 0 0 1-.831.337 4.656 4.656 0 0 1-.995.103h-.002ZM53.834 17.435c-.888 0-1.658-.167-2.312-.501-.655-.334-1.162-.79-1.523-1.373a3.657 3.657 0 0 1-.543-1.97c0-.731.176-1.415.528-1.997a3.71 3.71 0 0 1 1.456-1.366c.617-.33 1.32-.494 2.107-.494.733 0 1.399.153 1.998.46.6.306 1.08.746 1.441 1.317.361.572.543 1.27.543 2.094 0 .091-.006.196-.014.316-.01.119-.018.228-.029.33h-5.888v-1.373H56.1l-.989.383c.01-.329-.052-.62-.185-.87a1.452 1.452 0 0 0-.542-.584 1.538 1.538 0 0 0-.81-.205c-.311 0-.6.069-.837.205a1.34 1.34 0 0 0-.542.583 1.985 1.985 0 0 0-.185.885v.399c0 .366.076.682.227.947.15.266.369.47.652.611.283.142.623.213 1.016.213.392 0 .69-.052.946-.158a2.86 2.86 0 0 0 .77-.487l1.358 1.441a3.42 3.42 0 0 1-1.304.886c-.522.205-1.135.308-1.84.308ZM58.734 17.312V7.127h2.609v10.185h-2.609ZM63.03 17.312V7.127h2.61v10.185h-2.61ZM69.674 17.435c-.586 0-1.087-.1-1.503-.302-.416-.201-.732-.476-.946-.824a2.146 2.146 0 0 1-.323-1.153c0-.458.116-.856.35-1.194.233-.338.594-.597 1.084-.776.49-.178 1.113-.268 1.874-.268h1.756v1.373h-1.4c-.421 0-.716.064-.886.192-.17.13-.254.312-.254.549 0 .22.087.4.26.542.174.142.413.213.715.213s.556-.071.79-.213c.233-.141.4-.358.501-.652l.357.96c-.138.514-.404.9-.802 1.16-.398.26-.922.392-1.572.392l-.001.001Zm2.197-.123v-1.387l-.179-.343v-2.554c0-.412-.126-.73-.378-.954-.25-.225-.651-.337-1.201-.337-.357 0-.721.06-1.09.179-.372.118-.685.27-.941.452l-.865-1.756c.421-.274.926-.49 1.517-.646a6.9 6.9 0 0 1 1.764-.233c1.208 0 2.143.28 2.808.837.663.559.995 1.427.995 2.608v4.132h-2.43v.002ZM75.948 17.312V9.858h2.497v2.183l-.384-.618c.229-.559.588-.98 1.078-1.263.49-.283 1.087-.426 1.791-.426v2.361a3.455 3.455 0 0 0-.59-.04c-.531 0-.961.144-1.29.432-.33.288-.494.758-.494 1.407v3.418h-2.608ZM88.191 17.312V9.858H85.24V7.704h8.607v2.154h-2.938v7.454H88.19h.001ZM97.896 17.435c-.888 0-1.658-.167-2.313-.501-.654-.334-1.162-.79-1.523-1.373a3.657 3.657 0 0 1-.542-1.97c0-.731.176-1.415.528-1.997a3.71 3.71 0 0 1 1.456-1.366c.617-.33 1.32-.494 2.107-.494.732 0 1.398.153 1.998.46.599.306 1.079.746 1.441 1.317.361.572.542 1.27.542 2.094 0 .091-.005.196-.014.316-.009.119-.018.228-.028.33H95.66v-1.373h4.502l-.99.383c.01-.329-.051-.62-.184-.87a1.453 1.453 0 0 0-.542-.584 1.538 1.538 0 0 0-.81-.205c-.311 0-.6.069-.837.205a1.34 1.34 0 0 0-.542.583 1.985 1.985 0 0 0-.185.885v.399c0 .366.075.682.227.947.15.266.369.47.652.611.283.142.622.213 1.015.213.393 0 .692-.052.947-.158a2.86 2.86 0 0 0 .769-.487l1.358 1.441c-.348.384-.781.68-1.303.886-.522.205-1.135.308-1.84.308h-.001ZM102.797 17.312V9.858h2.498v2.183l-.384-.618c.228-.559.588-.98 1.078-1.263.489-.283 1.086-.426 1.791-.426v2.361a3.476 3.476 0 0 0-.591-.04c-.531 0-.961.144-1.29.432-.329.288-.493.758-.493 1.407v3.418h-2.609ZM118.541 9.734c.576 0 1.09.119 1.545.357.452.239.81.6 1.07 1.085s.391 1.112.391 1.88v4.256h-2.608v-3.83c0-.53-.101-.917-.302-1.16-.202-.242-.476-.363-.825-.363-.256 0-.483.06-.679.179-.197.118-.35.3-.46.542-.109.242-.164.561-.164.954v3.679H113.9v-3.83c0-.53-.098-.917-.295-1.16-.196-.242-.473-.363-.83-.363-.248 0-.472.06-.672.179-.202.119-.36.3-.474.542-.114.242-.17.561-.17.954v3.68h-2.609V9.86h2.498v2.086l-.494-.59c.265-.53.636-.934 1.112-1.208a3.132 3.132 0 0 1 1.592-.412c.678 0 1.267.172 1.771.515.502.343.842.882 1.015 1.613l-.851-.193a3.204 3.204 0 0 1 1.202-1.413c.536-.349 1.151-.522 1.846-.522v-.003Z" fill="#fff"/><path d="M21.288 25.64H4.776a4.57 4.57 0 0 1-4.564-4.564V4.564A4.57 4.57 0 0 1 4.776 0h16.512a4.57 4.57 0 0 1 4.564 4.564v16.512a4.57 4.57 0 0 1-4.564 4.564ZM4.776 2.424c-1.18 0-2.14.96-2.14 2.14v16.512c0 1.18.96 2.14 2.14 2.14h16.512c1.18 0 2.14-.96 2.14-2.14V4.564c0-1.18-.96-2.14-2.14-2.14H4.776Z" fill="#fff"/></svg>