<svg width="109" height="27" fill="none" xmlns="http://www.w3.org/2000/svg"><path d="M51.796 8.706h-3.712v10.16H46.54V8.706h-3.72V7.402h8.976v1.304Zm4.836 5.224c0-.33-.048-.632-.144-.904a1.917 1.917 0 0 0-.408-.712 1.722 1.722 0 0 0-.648-.464 2.155 2.155 0 0 0-.872-.168c-.683 0-1.224.2-1.624.6-.395.395-.64.944-.736 1.648h4.432Zm1.152 3.8c-.176.214-.387.4-.632.56-.246.155-.51.283-.792.384a4.672 4.672 0 0 1-.864.224c-.3.054-.595.08-.888.08-.56 0-1.078-.093-1.552-.28a3.515 3.515 0 0 1-1.224-.832 3.892 3.892 0 0 1-.8-1.36c-.192-.538-.288-1.157-.288-1.856 0-.565.085-1.093.256-1.584.176-.49.426-.914.752-1.272a3.375 3.375 0 0 1 1.192-.848 3.87 3.87 0 0 1 1.584-.312c.485 0 .933.083 1.344.248.416.16.773.395 1.072.704.304.304.54.683.712 1.136.17.448.256.96.256 1.536 0 .224-.024.374-.072.448-.048.075-.14.112-.272.112h-5.416c.016.512.085.958.208 1.336.128.379.304.696.528.952.224.251.49.44.8.568a2.8 2.8 0 0 0 1.04.184c.357 0 .664-.04.92-.12a4.608 4.608 0 0 0 1.136-.536c.128-.085.237-.128.328-.128.117 0 .208.046.272.136l.4.52Zm3.349-10.648v11.784h-1.424V7.082h1.424Zm7.733 6.848c0-.33-.048-.632-.144-.904a1.917 1.917 0 0 0-.408-.712 1.722 1.722 0 0 0-.648-.464 2.155 2.155 0 0 0-.872-.168c-.683 0-1.224.2-1.624.6-.395.395-.64.944-.736 1.648h4.432Zm1.152 3.8c-.176.214-.387.4-.632.56a4.03 4.03 0 0 1-.792.384 4.676 4.676 0 0 1-.864.224c-.299.054-.595.08-.888.08-.56 0-1.077-.093-1.552-.28a3.513 3.513 0 0 1-1.224-.832 3.89 3.89 0 0 1-.8-1.36c-.192-.538-.288-1.157-.288-1.856 0-.565.085-1.093.256-1.584a3.74 3.74 0 0 1 .752-1.272 3.374 3.374 0 0 1 1.192-.848 3.87 3.87 0 0 1 1.584-.312c.485 0 .933.083 1.344.248.416.16.773.395 1.072.704.304.304.541.683.712 1.136.17.448.256.96.256 1.536 0 .224-.024.374-.072.448-.048.075-.139.112-.272.112h-5.416c.016.512.085.958.208 1.336.128.379.304.696.528.952.224.251.49.44.8.568a2.8 2.8 0 0 0 1.04.184c.357 0 .664-.04.92-.12a4.608 4.608 0 0 0 1.136-.536c.128-.085.237-.128.328-.128.117 0 .208.046.272.136l.4.52Zm4.701-2.824c.288 0 .541-.04.76-.12a1.55 1.55 0 0 0 .552-.336c.15-.144.261-.314.336-.512.075-.202.112-.424.112-.664 0-.496-.152-.89-.456-1.184-.299-.293-.733-.44-1.304-.44-.576 0-1.016.147-1.32.44-.299.294-.448.688-.448 1.184 0 .24.037.462.112.664a1.47 1.47 0 0 0 .896.848c.219.08.472.12.76.12Zm2.568 4.4a.684.684 0 0 0-.168-.48 1.117 1.117 0 0 0-.456-.288 2.718 2.718 0 0 0-.656-.144c-.25-.032-.517-.056-.8-.072l-.848-.048a10.021 10.021 0 0 1-.832-.08 2.247 2.247 0 0 0-.736.528c-.187.208-.28.454-.28.736 0 .182.045.35.136.504.096.16.24.296.432.408.192.118.432.208.72.272.293.07.637.104 1.032.104a4.66 4.66 0 0 0 1.032-.104c.304-.069.56-.168.768-.296.213-.128.376-.28.488-.456.112-.176.168-.37.168-.584Zm1.448-8.224v.528c0 .176-.112.288-.336.336l-.92.12c.181.352.272.742.272 1.168 0 .395-.077.755-.232 1.08-.15.32-.357.595-.624.824-.267.23-.587.406-.96.528a3.873 3.873 0 0 1-1.216.184c-.379 0-.736-.045-1.072-.136-.17.107-.301.222-.392.344a.584.584 0 0 0-.136.36c0 .192.077.339.232.44.16.096.368.166.624.208.256.043.547.07.872.08.33.011.667.03 1.008.056.347.022.683.062 1.008.12.33.059.624.155.88.288.256.134.461.318.616.552.16.235.24.539.24.912 0 .347-.088.683-.264 1.008-.17.326-.419.614-.744.864a3.73 3.73 0 0 1-1.2.608c-.47.155-1 .232-1.592.232-.592 0-1.11-.058-1.552-.176-.443-.117-.81-.274-1.104-.472a2.082 2.082 0 0 1-.664-.688 1.624 1.624 0 0 1-.216-.808c0-.4.125-.738.376-1.016.25-.277.595-.498 1.032-.664a1.532 1.532 0 0 1-.576-.424c-.139-.181-.208-.424-.208-.728 0-.117.021-.237.064-.36.043-.128.107-.253.192-.376a2.068 2.068 0 0 1 .776-.656c-.4-.224-.712-.52-.936-.888-.224-.373-.336-.805-.336-1.296 0-.394.075-.752.224-1.072.155-.325.368-.6.64-.824.272-.229.595-.405.968-.528a4.003 4.003 0 0 1 1.24-.184c.352 0 .68.04.984.12.304.075.581.187.832.336h2.2Zm2.825 1.304c.256-.554.57-.986.944-1.296.373-.314.829-.472 1.368-.472.17 0 .333.019.488.056.16.038.3.096.424.176l-.104 1.064c-.032.134-.112.2-.24.2-.075 0-.184-.016-.328-.048a2.258 2.258 0 0 0-.488-.048 1.98 1.98 0 0 0-.688.112 1.622 1.622 0 0 0-.536.336 2.375 2.375 0 0 0-.424.544 4.737 4.737 0 0 0-.336.736v5.12h-1.432v-8.104h.816c.154 0 .26.03.32.088.058.059.098.16.12.304l.096 1.232Zm8.743 2.832c-.656.022-1.216.075-1.68.16-.459.08-.835.187-1.128.32-.288.134-.499.291-.632.472a1.03 1.03 0 0 0-.192.608c0 .214.034.398.104.552.069.155.162.283.28.384.122.096.264.168.424.216.165.043.341.064.528.064.25 0 .48-.024.688-.072.208-.053.402-.128.584-.224.186-.096.362-.21.528-.344.17-.133.336-.285.496-.456v-1.68Zm-4.6-3.312c.448-.432.93-.754 1.448-.968a4.471 4.471 0 0 1 1.72-.32c.453 0 .856.075 1.208.224.352.15.648.358.888.624.24.267.421.59.544.968.122.379.184.795.184 1.248v5.184h-.632a.653.653 0 0 1-.32-.064c-.075-.048-.134-.138-.176-.272l-.16-.768a8.67 8.67 0 0 1-.624.528c-.203.15-.416.278-.64.384a3.446 3.446 0 0 1-.72.232c-.251.059-.531.088-.84.088-.315 0-.611-.042-.888-.128a2.147 2.147 0 0 1-.728-.4 1.936 1.936 0 0 1-.488-.664 2.41 2.41 0 0 1-.176-.96c0-.32.088-.626.264-.92.176-.298.461-.562.856-.792.394-.229.909-.416 1.544-.56.634-.149 1.413-.234 2.336-.256v-.632c0-.629-.136-1.104-.408-1.424-.272-.325-.67-.488-1.192-.488-.352 0-.648.046-.888.136-.235.086-.44.184-.616.296-.171.107-.32.206-.448.296a.641.641 0 0 1-.368.128.425.425 0 0 1-.248-.072.755.755 0 0 1-.176-.192l-.256-.456Zm8.16 6.96v-8.104h.857c.203 0 .328.099.376.296l.104.832c.299-.368.635-.669 1.008-.904a2.384 2.384 0 0 1 1.296-.352c.544 0 .984.152 1.32.456.341.304.587.715.736 1.232.117-.293.266-.546.448-.76a2.63 2.63 0 0 1 1.352-.832c.261-.064.525-.096.792-.096.427 0 .805.07 1.136.208.336.134.619.331.848.592.235.262.413.584.536.968.123.379.184.814.184 1.304v5.16h-1.432v-5.16c0-.634-.139-1.114-.416-1.44-.277-.33-.677-.496-1.2-.496a1.79 1.79 0 0 0-.672.128c-.208.08-.392.2-.552.36-.16.16-.288.363-.384.608-.091.24-.136.52-.136.84v5.16h-1.432v-5.16c0-.65-.13-1.136-.392-1.456-.261-.32-.643-.48-1.144-.48a1.77 1.77 0 0 0-.976.288 3.175 3.175 0 0 0-.824.768v6.04h-1.432ZM30.272 1.722c-.204.984-.425 2.056-.65 3.125l-4.328 20.63c-.163.773-.518 1.099-1.068.939-.207-.061-.4-.198-.58-.327-2.07-1.484-4.134-2.972-6.201-4.46-.91-.654-1.244-.65-2.105.038-1.103.88-2.199 1.767-3.303 2.644-.759.603-1.273.439-1.567-.49-.78-2.48-1.584-4.954-2.325-7.446-.173-.581-.473-.853-1.026-1.048-1.968-.694-3.913-1.445-5.872-2.163-.405-.149-.717-.355-.717-.824 0-.473.333-.671.728-.822 6.28-2.396 12.558-4.795 18.836-7.194 2.85-1.09 5.698-2.18 8.55-3.265.24-.091.484-.193.736-.233.515-.08.908.29.892.895v.001ZM9.498 15.469c.02.128.028.284.069.43.452 1.594.9 3.19 1.375 4.776.046.157.256.266.39.397.122-.159.317-.305.35-.48.118-.621.178-1.252.26-1.88.103-.767.227-1.512.858-2.083 1.465-1.326 2.908-2.678 4.36-4.017 2.16-1.992 4.322-3.981 6.473-5.983.11-.101.121-.306.18-.463-.168.027-.366.007-.501.088-2.368 1.433-4.728 2.88-7.092 4.323-1.98 1.209-3.96 2.418-5.941 3.624-.474.287-.772.675-.782 1.268Z" fill="#fff"/></svg>