<svg width="17" height="15" fill="none" xmlns="http://www.w3.org/2000/svg"><path d="M17 .53c-.117.576-.243 1.203-.372 1.829l-2.474 12.068c-.093.453-.296.643-.61.55a1.152 1.152 0 0 1-.331-.191c-1.183-.868-2.363-1.74-3.545-2.61-.52-.382-.711-.38-1.203.022-.63.516-1.257 1.034-1.888 1.548-.433.352-.728.256-.895-.287-.447-1.45-.906-2.899-1.33-4.356-.099-.34-.27-.5-.586-.614C2.642 8.084 1.53 7.644.41 7.224.178 7.137 0 7.017 0 6.742c0-.277.19-.393.416-.48 3.59-1.402 7.178-2.806 10.766-4.21L16.07.143c.137-.053.277-.112.42-.136.295-.046.52.17.51.524ZM5.126 8.574c.011.074.016.166.04.252.258.932.514 1.865.785 2.793.027.092.146.156.223.233.07-.093.182-.179.2-.281.068-.364.102-.733.15-1.1.058-.449.129-.885.49-1.219.837-.775 1.661-1.566 2.491-2.35 1.234-1.165 2.47-2.329 3.7-3.5.063-.06.07-.179.103-.27-.096.015-.21.004-.286.051-1.354.838-2.703 1.684-4.054 2.529-1.131.707-2.263 1.414-3.396 2.12-.27.168-.44.395-.447.742Z" fill="#fff"/></svg>