<svg width="395" height="128" fill="none" xmlns="http://www.w3.org/2000/svg"><g clip-path="url(#a)"><path d="M234.359 15.055c.152-.4 1.78-5.51 1.78-5.588 0-.055-1.092-.897-2.427-1.87l-2.427-1.772 3.037-.02 3.037-.021.892-2.774c.49-1.526.915-2.822.944-2.881.029-.06.339.781.695 1.889l.929 2.881.286.885 3.04.02 3.041.021-2.429 1.771c-1.336.974-2.43 1.81-2.431 1.859-.001.048.402 1.34.896 2.87.493 1.53.885 2.793.87 2.808-.014.015-1.114-.768-2.444-1.74l-2.417-1.768-.234.177c-1.013.761-4.589 3.35-4.628 3.35-.026 0-.031-.043-.01-.097ZM192.572 14.779c.062-.206.479-1.499.926-2.874l.814-2.5-2.454-1.79-2.454-1.79 3.036-.02 3.036-.021.542-1.672.94-2.892.398-1.22.829 2.558c.456 1.407.872 2.709.926 2.892l.097.334 3.049.02 3.049.021-2.432 1.771c-1.338.974-2.433 1.804-2.435 1.843-.002.04.403 1.33.899 2.865.497 1.536.89 2.806.874 2.822-.016.016-1.116-.764-2.446-1.733l-2.416-1.76-.826.604c-3.202 2.347-3.987 2.916-4.024 2.916-.023 0 .009-.168.072-.374ZM213.512 14.786c.819-2.479 1.71-5.335 1.679-5.385-.021-.034-1.12-.852-2.443-1.819l-2.405-1.757 3.048-.04 3.047-.039.903-2.814c.497-1.548.924-2.814.949-2.814.025 0 .459 1.275.964 2.834l.919 2.834h6.121l-2.379 1.736c-1.308.956-2.421 1.78-2.473 1.83-.075.074.109.722.838 2.964.513 1.579.925 2.876.917 2.883-.009.006-1.091-.779-2.404-1.745-1.314-.966-2.43-1.759-2.482-1.76-.074-.004-3.47 2.425-4.699 3.36l-.252.192.152-.46ZM172.43 12.318c.518-1.601.927-2.923.909-2.938-.018-.014-1.121-.82-2.453-1.79l-2.42-1.765 3.043-.04 3.043-.039.912-2.815c.501-1.548.928-2.832.948-2.852.02-.02.117.22.215.533.098.313.513 1.604.92 2.87l.742 2.302 3.037.02 3.036.021-2.447 1.789-2.447 1.79.294.926a593.475 593.475 0 0 0 1.552 4.809c.021.057-1.071-.71-2.429-1.703l-2.467-1.807-2.104 1.535-2.465 1.8-.362.266.943-2.912ZM150.594 15.096c.143-.45 1.635-5.077 1.727-5.355l.111-.335-2.453-1.79-2.453-1.791 3.039-.02 3.038-.021.715-2.223c.394-1.223.814-2.524.935-2.892l.219-.669.935 2.873.936 2.873 3.045.04 3.045.039-2.44 1.771c-1.341.974-2.44 1.807-2.441 1.85-.001.043.417 1.362.927 2.93.868 2.665.915 2.843.723 2.704-.113-.081-1.224-.89-2.468-1.797l-2.263-1.65-2.46 1.801c-1.354.991-2.441 1.739-2.417 1.662ZM302.768 52.776V27.033l13.252.029c14.326.031 13.623.011 16.253.455 4.776.806 8.763 2.66 11.596 5.394 3.232 3.12 4.858 7.213 4.858 12.233 0 6.317-2.586 11.31-7.555 14.581-2.664 1.754-6.033 2.997-9.748 3.598-2.386.385-2.994.418-8.397.455l-5.148.036V78.52h-15.111V52.776Zm24.663-.342c3.339-.66 5.495-2.443 6.115-5.058.227-.958.184-2.845-.083-3.688-.763-2.402-2.661-3.873-5.758-4.463-.793-.15-1.216-.167-5.343-.199l-4.483-.034v13.641l4.443-.034c3.735-.028 4.55-.055 5.109-.165ZM230.188 52.78V27.04l8.006.002 8.006.002 6.459 9.916c3.553 5.453 6.489 9.906 6.524 9.894.036-.012 2.963-4.466 6.505-9.899l6.44-9.877 7.999-.02 8-.02V78.52h-15.032l-.02-14.757-.02-14.758-6.929 10.035c-6.203 8.983-6.949 10.032-7.12 10.015-.157-.016-1.382-1.748-7.085-10.016l-6.896-9.996-.02 14.739-.019 14.739h-14.798V52.78ZM105.307 27.034l14.504.026c15.717.027 14.981.009 17.754.456 3.977.642 7.289 1.944 9.928 3.904.853.633 2.698 2.527 3.324 3.412.588.831 1.587 2.788 1.891 3.704.279.842.561 2.017.726 3.026.114.69.142 1.305.141 3.03-.002 1.916-.023 2.284-.184 3.189-.705 3.964-2.452 7.025-5.452 9.551-1.275 1.074-3.423 2.368-4.991 3.007-.248.101-.45.213-.45.25 0 .047 12.362 17.188 12.861 17.832.061.079-1.671.098-8.604.098l-8.681-.001-10.961-15.584h-6.695V78.52h-15.111V27.034Zm27.364 24.544c2.07-.396 3.406-1.052 4.448-2.184.986-1.07 1.386-2.185 1.384-3.85-.002-1.23-.136-1.9-.552-2.747-.817-1.667-2.387-2.723-4.849-3.263-.708-.156-1.027-.165-6.714-.193l-5.97-.03v12.456l5.814-.035c4.775-.028 5.925-.056 6.439-.154ZM62.245 39.555H46.038V27.039h47.681v12.516H77.356V78.52H62.245V39.555ZM187.909 79.382c-7.016-.506-12.306-2.55-16.077-6.211-3.141-3.05-5.077-7.085-5.843-12.178-.347-2.31-.342-2.08-.372-18.348l-.03-15.606h15.271l.025 15.212c.028 16.713-.001 15.682.496 17.527 1.007 3.737 3.629 6.076 7.469 6.662.995.152 3.161.148 4.203-.007 2.275-.34 3.977-1.169 5.352-2.605 1.327-1.386 2.051-2.96 2.477-5.385.118-.674.133-2.19.159-16.074l.029-15.33h15.188l-.024 15.802c-.026 17.481.006 16.34-.535 19.122-1.989 10.243-9.036 16.122-20.742 17.307-1.444.146-5.647.213-7.046.112ZM330.876 96.115c0-.02-.194-1.314-.431-2.875-.249-1.645-.43-3.104-.43-3.467v-.627h3.21v.582c0 .32-.194 1.878-.431 3.462-.237 1.583-.43 2.897-.43 2.92 0 .023-.335.042-.744.042s-.744-.016-.744-.037ZM330.171 98.277v-1.26H333.068v2.52H330.171v-1.26ZM317.096 94.341v-5.195h2.624l2.114 2.734 2.113 2.733.021-2.733.02-2.734h2.817v10.391h-2.498l-2.177-2.801-2.176-2.802-.021 2.802-.02 2.8h-2.817v-5.195ZM310.833 94.34v-5.197l1.428.021 1.429.022.02 5.175.021 5.176h-2.898V94.34ZM296.858 99.243c.065-.163 1.046-2.51 2.181-5.216l2.064-4.92 1.367-.022 1.367-.02.1.217c.12.265 4.142 9.826 4.24 10.08l.069.178-1.533-.021-1.534-.022-.352-.885-.353-.886h-4.038l-.353.886-.352.886-1.496.02-1.496.022.119-.297Zm6.46-4.567c-.719-1.843-.812-2.066-.856-2.065-.025 0-.298.638-.606 1.417l-.56 1.416h2.322l-.3-.768ZM271.372 99.492c0-.06 4.137-9.93 4.278-10.208l.11-.216h1.325c.973 0 1.341.026 1.387.098.035.054 1.036 2.41 2.226 5.235l2.162 5.136h-3.072l-.352-.907-.352-.906-2.033.021-2.032.02-.343.886-.342.886h-1.481c-.815 0-1.481-.02-1.481-.045Zm6.798-4.154c-.066-.272-1.05-2.724-1.094-2.726-.04-.002-.49 1.076-1.141 2.733-.03.076.222.099 1.11.099.923 0 1.145-.021 1.125-.106ZM257.827 95.601v-3.936h-3.054v-2.52l4.522.02 4.521.02.022 1.24.021 1.24h-3.135v7.872H257.827V95.6ZM242.951 98.809c.167-.4 1.149-2.748 2.183-5.215l1.879-4.487h2.769l2.182 5.186c1.201 2.853 2.183 5.2 2.183 5.215 0 .016-.684.029-1.519.029h-1.519l-.352-.886-.352-.885-2.033-.021-2.033-.021-.344.905-.343.905-1.502.001-1.502.002.303-.728Zm6.491-3.582c-.531-1.418-1.041-2.618-1.092-2.565-.068.072-1.093 2.621-1.093 2.72 0 .034.51.062 1.133.062h1.133l-.081-.217ZM232.086 94.361l.021-5.175h8.299l.021 1.2.022 1.2H234.964V93.162h4.933v2.283h-4.933v1.653H240.523v2.44h-8.457l.02-5.176ZM220.01 94.335v-5.203l2.995.034c3.216.036 3.399.057 4.345.491.545.25 1.225.908 1.459 1.41.487 1.046.473 2.363-.037 3.367-.216.425-.808 1.014-1.311 1.303l-.403.231.372.545c.206.3.753 1.102 1.217 1.784l.844 1.24h-3.295l-1.038-1.575-1.038-1.574-.626.02-.626.02-.022 1.554-.021 1.555h-2.815v-5.203Zm5.608-.33c.135-.072.338-.24.45-.375.267-.319.29-.999.047-1.399-.281-.463-.642-.562-2.053-.564l-1.233-.002v1.207c0 .664.026 1.234.058 1.268.033.033.605.046 1.273.028.93-.025 1.27-.063 1.458-.163ZM187.601 99.478c.003-.033.98-2.38 2.173-5.215l2.167-5.156 1.375-.022 1.375-.02 2.025 4.822a1506.32 1506.32 0 0 0 2.206 5.237l.181.413-1.545-.002-1.546-.001-.343-.905-.344-.905-2.033.02-2.033.022-.352.885-.352.886h-1.48c-.814 0-1.477-.027-1.474-.06Zm6.806-4.088c0-.109-1.058-2.78-1.101-2.78-.025 0-.251.522-.503 1.16-.252.64-.506 1.277-.564 1.418l-.104.256h1.136c.625 0 1.136-.025 1.136-.054ZM169.979 94.341v-5.195h2.819v10.391h-2.819V94.34ZM157.765 94.334v-5.202l2.995.034c2.509.028 3.071.055 3.464.167 1.81.516 2.705 1.627 2.7 3.35a5.367 5.367 0 0 1-.08.934c-.194.845-.77 1.61-1.571 2.086l-.44.26 1.203 1.766a99.235 99.235 0 0 1 1.203 1.787c0 .011-.735.02-1.633.02h-1.632l-1.041-1.573-1.042-1.575h-1.229v3.149H157.765v-5.203Zm5.279-.225c.643-.15 1.018-.6 1.018-1.224 0-.522-.17-.79-.661-1.043-.313-.16-.455-.177-1.542-.177h-1.197v2.52l1.037-.003c.571 0 1.176-.034 1.345-.073ZM146.412 94.341v-5.195h8.3v2.44h-5.481V93.161H154.242v2.28l-2.486.021-2.486.02-.022.808-.023.807H154.79v2.44h-8.378V94.34ZM132.103 94.361l.02-5.175h3.037l1.222 1.989c1.085 1.768 1.233 1.974 1.324 1.85.056-.077.617-.98 1.247-2.01l1.146-1.869h3.025v10.391H140.227l-.002-2.932-.001-2.932-1.287 1.966c-.707 1.082-1.314 1.974-1.349 1.983-.034.009-.626-.865-1.315-1.942-.689-1.078-1.279-1.961-1.311-1.964-.033-.002-.059 1.306-.059 2.908v2.913h-2.82l.02-5.176ZM118.148 99.481c0-.03.977-2.386 2.171-5.234l2.171-5.18h1.349c1.296 0 1.353.007 1.439.168.116.218 4.228 9.984 4.28 10.164.036.128-.071.138-1.487.138h-1.527l-.342-.906-.342-.907-2.033.021-2.032.02-.35.886-.35.886h-1.473c-.811 0-1.474-.025-1.474-.056Zm6.811-4.071c0-.084-1.115-2.885-1.139-2.861a35.75 35.75 0 0 0-.548 1.362l-.56 1.434c-.031.076.22.099 1.104.099.629 0 1.143-.016 1.143-.034ZM102.019 94.342v-5.196h8.299v2.44h-5.481V93.162h4.933v2.283h-4.933v1.653H110.396v2.44H102.019v-5.195ZM89.727 94.34v-5.197l1.428.021 1.43.022.038 2.056.04 2.057 1.752-2.076 1.752-2.077h1.678c1.176 0 1.662.026 1.626.085-.029.047-.894 1.042-1.923 2.212-1.03 1.17-1.871 2.154-1.871 2.185 0 .03.896 1.373 1.991 2.983l1.991 2.926h-3.425l-1.238-1.823a520.336 520.336 0 0 0-1.299-1.91c-.039-.053-.247.118-.567.466l-.505.551-.001 1.358-.001 1.358H89.726V94.34ZM75.83 99.243c.065-.163 1.046-2.51 2.18-5.216l2.061-4.92 1.373-.022 1.372-.02.278.65c.431 1.01 3.977 9.445 4.055 9.647l.07.178-1.534-.021-1.534-.021-.352-.886-.352-.885h-4.04l-.352.885-.352.886-1.496.021-1.495.021.118-.297Zm6.286-5c-.259-.66-.505-1.298-.548-1.417-.043-.119-.1-.216-.129-.215-.028 0-.303.638-.611 1.417l-.56 1.416h2.319l-.47-1.2ZM62.185 94.361l.02-5.175h3.03l1.203 1.958a131.853 131.853 0 0 0 1.236 1.991c.018.018.589-.872 1.268-1.978l1.235-2.01h3.029v10.39h-2.895l-.02-2.92-.021-2.92-1.281 1.976c-.705 1.086-1.304 1.974-1.331 1.973-.028-.002-.577-.821-1.22-1.822-.644-1-1.233-1.894-1.31-1.985-.132-.16-.138-.048-.14 2.766l-.003 2.932h-2.82l.02-5.176ZM288.871 99.688c-1.831-.364-3.253-1.396-3.954-2.867-.425-.891-.577-1.666-.53-2.704.111-2.475 1.678-4.366 4.127-4.981.562-.141.822-.16 1.723-.13.931.033 1.151.068 1.8.29.716.243 1.363.587 1.84.978l.231.19-.807.974c-.444.536-.837.986-.874 1-.037.014-.183-.061-.324-.168-.77-.58-1.846-.86-2.654-.69-.901.189-1.7.897-2.007 1.778-.092.265-.137.624-.135 1.102.001.606.033.776.219 1.18a3.03 3.03 0 0 0 1.266 1.365c.362.194.464.21 1.331.21.783 0 .992-.026 1.253-.158l.313-.157.023-.65.023-.649h-2.042v-2.125h4.776v4.7l-.47.331c-.611.431-1.5.84-2.255 1.04-.7.184-2.27.261-2.873.141ZM211.515 99.722c-1.172-.19-2.26-.7-3.013-1.415-.674-.64-1.043-1.19-1.351-2.022-.206-.552-.245-.782-.277-1.603-.027-.722-.004-1.105.096-1.557.428-1.933 1.992-3.5 3.967-3.977.79-.19 2.123-.21 2.902-.045.874.186 1.86.648 2.514 1.177l.218.176-.805.994c-.444.546-.833.996-.867.998-.033.003-.236-.117-.451-.266-.651-.45-1.19-.619-1.994-.625-.615-.005-.76.022-1.146.21-.537.263-1.028.781-1.307 1.38-.184.395-.209.543-.209 1.273 0 .74.023.872.213 1.26.311.633.615.961 1.171 1.265.486.265.513.27 1.435.27.827 0 .979-.022 1.272-.179l.333-.179v-1.256h-2.036v-2.125h4.776v2.308c0 2.648.085 2.353-.845 2.952-.522.336-1.236.635-2.012.843-.466.124-2.13.217-2.584.143ZM180.079 99.656c-1.877-.376-3.363-1.703-3.972-3.543-.185-.562-.208-.75-.208-1.732 0-.984.023-1.17.209-1.732.296-.892.707-1.541 1.395-2.202 1.018-.977 2.27-1.46 3.783-1.457 1.594.003 2.794.465 3.785 1.459.312.313.565.6.563.637-.002.037-.479.434-1.06.882l-1.057.815-.413-.393c-.575-.547-.988-.742-1.664-.786-.733-.048-1.233.118-1.746.582-.966.873-1.193 2.434-.535 3.676.506.955 1.506 1.437 2.563 1.235.581-.11.982-.331 1.464-.805l.406-.4 1.063.764c.939.674 1.054.78.983.913-.154.29-1.094 1.168-1.543 1.441-1.096.668-2.655.919-4.016.646Z" fill="#fff"/><path d="M249.214 120.515v-1.378H392.26V8.462H265.265V5.707H395v116.185H249.214v-1.377ZM0 5.707h129.735v2.755H2.74v110.675h143.046v2.755H0V5.707Z" fill="#D02030"/><path d="M223.768 126.342v-1.378l-3.815-.02-3.816-.021-.423-1.844c-.348-1.517-.406-1.87-.328-1.995.052-.084 1.784-2.238 3.851-4.788l3.756-4.637h5.943V121.184h1.879v3.779h-1.876l-.021 1.357-.022 1.358-2.564.021-2.564.021v-1.378Zm0-7.214v-2.134l-1.617 2.036-1.693 2.134c-.06.078.274.099 1.617.099h1.693v-2.135ZM199.653 125.765v-1.953l3.386-2.435c1.863-1.339 3.575-2.612 3.806-2.829.707-.664.918-1.271.651-1.877-.213-.486-.596-.682-1.329-.682-.738 0-1.283.284-2.294 1.195-.706.637-.799.697-.917.595l-1.719-1.47-1.587-1.356.229-.289c.34-.429 1.478-1.513 1.941-1.849 2.15-1.561 5.764-1.819 8.242-.588.926.459 1.897 1.417 2.299 2.266.372.787.559 1.739.498 2.534-.106 1.381-.539 2.358-1.461 3.295-.561.57-.805.745-3.798 2.719l-.705.465 3.074.021 3.073.02V127.718h-13.389v-1.953ZM164.655 125.764v-1.954l3.378-2.435c1.857-1.339 3.549-2.589 3.76-2.778.519-.467.787-.943.794-1.413.011-.767-.493-1.196-1.405-1.195-.821.002-1.414.326-2.531 1.386l-.554.525-.41-.344c-.225-.189-1-.851-1.723-1.471l-1.314-1.128.155-.218c.282-.399 1.416-1.498 1.915-1.855 1.835-1.317 4.559-1.786 6.892-1.188 1.29.33 2.18.836 2.959 1.683.911.989 1.279 1.977 1.266 3.397-.007.747-.044 1.016-.213 1.541-.519 1.61-1.352 2.391-4.999 4.682-.374.236-.682.455-.685.487-.002.033 1.371.059 3.051.059h3.055l-.021 2.067-.021 2.066-6.674.02-6.675.02v-1.954ZM187.798 127.951c-2.165-.343-3.885-1.437-5.033-3.202-.487-.748-.705-1.218-.998-2.148-.857-2.73-.398-5.942 1.164-8.144.491-.69 1.563-1.678 2.245-2.068 1.149-.657 2.36-.966 3.777-.965 1.073.001 1.677.095 2.616.407 2.438.813 4.22 2.98 4.844 5.889.179.84.201 2.916.039 3.739-.664 3.37-2.821 5.734-5.823 6.383-.693.15-2.203.208-2.831.109Zm1.959-4.713c.915-.418 1.481-1.542 1.57-3.117.106-1.858-.492-3.353-1.563-3.911-.494-.257-1.242-.242-1.712.035-.991.584-1.437 1.668-1.433 3.483.004 1.374.276 2.267.917 3 .53.607 1.514.833 2.221.51Z" fill="#fff"/></g><defs><clipPath id="a"><path fill="#fff" d="M0 0h395v128H0z"/></clipPath></defs></svg>