<svg width="27" height="27" viewBox="0 0 27 27" fill="none" xmlns="http://www.w3.org/2000/svg">
<circle cx="13.5" cy="13.5" r="13.5" fill="white" fill-opacity="0.75"/>
<path d="M17.7039 10.2411C18.2259 10.2411 18.6489 9.81798 18.6489 9.29607C18.6489 8.77416 18.2259 8.35107 17.7039 8.35107C17.182 8.35107 16.7589 8.77416 16.7589 9.29607C16.7589 9.81798 17.182 10.2411 17.7039 10.2411Z" fill="#192F47"/>
<path d="M13.5 9.45605C12.7002 9.45605 11.9184 9.69322 11.2534 10.1376C10.5884 10.5819 10.0701 11.2135 9.764 11.9524C9.45793 12.6913 9.37785 13.5044 9.53388 14.2888C9.68991 15.0732 10.075 15.7937 10.6406 16.3593C11.2061 16.9248 11.9267 17.3099 12.7111 17.466C13.4955 17.622 14.3086 17.5419 15.0475 17.2359C15.7864 16.9298 16.418 16.4115 16.8623 15.7465C17.3066 15.0815 17.5438 14.2997 17.5438 13.4999C17.5438 12.4274 17.1178 11.3988 16.3594 10.6405C15.601 9.8821 14.5725 9.45605 13.5 9.45605ZM13.5 16.1249C12.9808 16.1249 12.4733 15.9709 12.0416 15.6825C11.6099 15.394 11.2735 14.9841 11.0748 14.5044C10.8761 14.0248 10.8241 13.497 10.9254 12.9878C11.0267 12.4786 11.2767 12.0108 11.6438 11.6437C12.0109 11.2766 12.4787 11.0266 12.9879 10.9253C13.4971 10.824 14.0249 10.876 14.5045 11.0747C14.9842 11.2734 15.3942 11.6098 15.6826 12.0415C15.971 12.4732 16.125 12.9807 16.125 13.4999C16.125 14.1961 15.8484 14.8637 15.3561 15.356C14.8639 15.8483 14.1962 16.1249 13.5 16.1249Z" fill="#192F47"/>
<path d="M13.5 7.04381C15.6026 7.04381 15.852 7.05169 16.6822 7.08975C17.1815 7.09568 17.676 7.18736 18.1443 7.36078C18.484 7.49183 18.7925 7.69255 19.05 7.95001C19.3075 8.20748 19.5082 8.516 19.6392 8.85572C19.8126 9.32397 19.9043 9.81854 19.9102 10.3178C19.9483 11.148 19.9562 11.3974 19.9562 13.5007C19.9562 15.6039 19.9483 15.852 19.9102 16.6822C19.9043 17.1815 19.8126 17.676 19.6392 18.1443C19.5082 18.484 19.3075 18.7925 19.05 19.05C18.7925 19.3075 18.484 19.5082 18.1443 19.6392C17.676 19.8126 17.1815 19.9043 16.6822 19.9102C15.852 19.9483 15.6026 19.9562 13.5 19.9562C11.3974 19.9562 11.148 19.9483 10.3178 19.9102C9.81854 19.9043 9.32397 19.8126 8.85572 19.6392C8.516 19.5082 8.20748 19.3075 7.95001 19.05C7.69255 18.7925 7.49183 18.484 7.36078 18.1443C7.18736 17.676 7.09568 17.1815 7.08975 16.6822C7.05169 15.852 7.04381 15.6026 7.04381 13.5C7.04381 11.3974 7.05169 11.148 7.08975 10.3178C7.09568 9.81854 7.18736 9.32397 7.36078 8.85572C7.49183 8.516 7.69255 8.20748 7.95001 7.95001C8.20748 7.69255 8.516 7.49183 8.85572 7.36078C9.32397 7.18736 9.81854 7.09568 10.3178 7.08975C11.148 7.05169 11.3974 7.04381 13.5 7.04381ZM13.5 5.625C11.3613 5.625 11.0929 5.63419 10.2529 5.67225C9.59976 5.68544 8.9536 5.80925 8.34188 6.03844C7.81866 6.24076 7.34349 6.55017 6.94683 6.94683C6.55017 7.34349 6.24076 7.81866 6.03844 8.34188C5.80918 8.95381 5.68536 9.60019 5.67225 10.2535C5.63419 11.0935 5.625 11.3606 5.625 13.5C5.625 15.6394 5.63419 15.9071 5.67225 16.7471C5.68544 17.4002 5.80925 18.0464 6.03844 18.6581C6.24076 19.1813 6.55017 19.6565 6.94683 20.0532C7.34349 20.4498 7.81866 20.7592 8.34188 20.9616C8.95381 21.1908 9.60019 21.3146 10.2535 21.3277C11.0935 21.3658 11.3613 21.375 13.5 21.375C15.6387 21.375 15.9071 21.3658 16.7471 21.3277C17.4005 21.3146 18.0468 21.1908 18.6588 20.9616C19.182 20.7592 19.6572 20.4498 20.0538 20.0532C20.4505 19.6565 20.7599 19.1813 20.9622 18.6581C21.1913 18.0462 21.3148 17.3998 21.3277 16.7465C21.3658 15.9065 21.375 15.6394 21.375 13.5C21.375 11.3606 21.3658 11.0929 21.3277 10.2529C21.3146 9.59976 21.1907 8.9536 20.9616 8.34188C20.7592 7.81866 20.4498 7.34349 20.0532 6.94683C19.6565 6.55017 19.1813 6.24076 18.6581 6.03844C18.0462 5.80941 17.3998 5.68581 16.7465 5.67291C15.9065 5.63353 15.6394 5.625 13.5 5.625Z" fill="#192F47"/>
</svg>
