<svg width="27" height="27" viewBox="0 0 27 27" fill="none" xmlns="http://www.w3.org/2000/svg">
<path d="M13.5 0C6.04406 0 0 6.04406 0 13.5C0 20.9559 6.04406 27 13.5 27C20.9559 27 27 20.9559 27 13.5C27 6.04406 20.9559 0 13.5 0ZM18.9914 11.0587C18.997 11.1741 18.9984 11.2894 18.9984 11.4019C18.9984 14.9175 16.3252 18.9689 11.4342 18.9689C9.98901 18.9713 8.57386 18.5562 7.35891 17.7736C7.56562 17.7989 7.77797 17.8087 7.99312 17.8087C9.23906 17.8087 10.3852 17.3855 11.295 16.6711C10.7405 16.6602 10.2033 16.4766 9.75812 16.1459C9.31296 15.8152 8.98207 15.3538 8.81156 14.8261C9.20975 14.9018 9.61995 14.8859 10.0111 14.7797C9.40929 14.658 8.86809 14.3319 8.47928 13.8567C8.09046 13.3815 7.87796 12.7865 7.87781 12.1725V12.1402C8.23641 12.3384 8.64703 12.4594 9.08297 12.4734C8.51878 12.0979 8.11939 11.5209 7.96647 10.8607C7.81355 10.2004 7.91867 9.5066 8.26031 8.92125C8.92822 9.7425 9.76115 10.4143 10.7052 10.8932C11.6492 11.3722 12.6833 11.6475 13.7405 11.7014C13.6061 11.1309 13.6639 10.532 13.905 9.99774C14.1461 9.4635 14.557 9.02389 15.0737 8.74724C15.5904 8.4706 16.1841 8.37242 16.7623 8.46797C17.3406 8.56353 17.8711 8.84746 18.2714 9.27562C18.8665 9.15789 19.4372 8.93961 19.9589 8.63016C19.7606 9.24628 19.3453 9.76947 18.7903 10.1025C19.3174 10.039 19.8322 9.8973 20.3175 9.68203C19.961 10.2163 19.5119 10.6825 18.9914 11.0587Z" fill="white" fill-opacity="0.75"/>
</svg>
