<svg width="27" height="27" viewBox="0 0 27 27" fill="none" xmlns="http://www.w3.org/2000/svg">
<path d="M15.7542 13.2652L12.5958 11.7914C12.3202 11.6634 12.0938 11.8069 12.0938 12.112V14.888C12.0938 15.1931 12.3202 15.3366 12.5958 15.2086L15.7528 13.7348C16.0298 13.6055 16.0298 13.3945 15.7542 13.2652ZM13.5 0C6.04406 0 0 6.04406 0 13.5C0 20.9559 6.04406 27 13.5 27C20.9559 27 27 20.9559 27 13.5C27 6.04406 20.9559 0 13.5 0ZM13.5 18.9844C6.58969 18.9844 6.46875 18.3614 6.46875 13.5C6.46875 8.63859 6.58969 8.01562 13.5 8.01562C20.4103 8.01562 20.5312 8.63859 20.5312 13.5C20.5312 18.3614 20.4103 18.9844 13.5 18.9844Z" fill="white" fill-opacity="0.75"/>
</svg>
