<svg xmlns="http://www.w3.org/2000/svg" width="1920" height="955" fill="none"><mask id="a" width="3290" height="3414" x="-443" y="-1593" maskUnits="userSpaceOnUse" style="mask-type:luminance"><path fill="#fff" d="M996.918-1593-443 612.406 1406.85 1820.18 2846.77-385.227 996.918-1593Z"/></mask><g stroke="#6342A0" stroke-miterlimit="10" stroke-opacity=".38" mask="url(#a)"><path d="M-297.929 134.112c8.552-125.742 86.911-232.12 206.127-279.843 119.335-47.907 277.171-36.076 415.489 30.904 175.884 85.214 318.475 252.233 502.871 297.132C982.782 220.346 1119.77 158.537 1246 103.6c126.59-54.969 276.33-103.99 429.25-43.207 103.23 40.92 194.33 128.188 299.59 145.275 107.13 17.259 192.25-46.435 231.24-126.355 39.22-79.769 44.1-175.14 65.46-263.423 64.13-267.441 287.54-470.205 583.21-528.545"/><path d="M-299.424 146.505C-293.305 67.93-258.8-2.598-204.155-54.47c33.145-31.571 73.775-56.421 119.636-72.613 30.688-10.633 63.533-17.498 97.601-20.681 81.947-7.31 170.773 7.171 257.673 38.745 20.796 7.548 41.343 15.983 61.522 25.488C401.051-51.472 465.102-9.653 527.295 31.477 608.097 85.019 685.986 137.97 771.877 167.05c18.946 6.341 38.492 11.763 58.416 15.597 72.002 13.982 140.037 6.763 206.007-9.927 73.49-18.6 144.72-48.898 212.6-74.567 9.18-3.446 18.35-6.892 27.76-10.187 68.08-23.963 139.93-42.583 214.43-44.538 59.17-1.731 120.38 7.564 181.88 34.608 32.83 14.362 64.54 33.49 95.64 53.536 64.77 41.235 128.99 86.835 200.67 98.776 93.49 15.427 169.68-32.074 213.68-96.93 6.23-9.038 11.65-18.345 16.6-27.955 40.02-78.462 47.66-171.504 71.32-257.24 5.86-21.601 13-42.632 20.82-63.209 44.36-113.9 120.7-211.634 218.84-285.173 97.91-73.171 217.02-121.747 345.59-141.869"/><path d="M-300.688 159.048c7.062-79.008 43.776-148.879 100.614-199.058 34.413-30.482 76.301-53.723 123.18-67.94 31.253-9.477 64.543-15.003 98.817-16.479 82.236-3.714 170.058 14.831 257.181 47.074 21.027 7.7 41.806 16.285 62.224 25.422 69.726 31.107 134.42 69.415 196.332 106.43 80.196 47.903 156.101 93.792 239.749 117.214 18.381 5.185 37.362 9.452 56.721 12.13 69.964 10.031 136.527.016 202.29-17.862 73.16-20.124 146.25-49.731 215.36-72.237 9.29-3.111 18.68-5.888 28.08-8.664 69.19-20.097 139.78-33.25 212.68-30.74 57.95 1.661 117.59 13.864 177.65 42.595 32.12 15.465 63.22 35.511 93.85 56.293 63.56 43.073 126.93 90.478 199.54 103.022 92.67 15.677 168.05-32.093 212.38-95.945 6.11-8.854 11.76-18.011 16.71-27.62 40.81-77.157 51.23-167.868 77.18-251.057 6.43-20.965 14.14-41.358 22.77-61.148 47.45-110.047 126.4-203.193 225.84-270.122 98.96-66.712 217.23-106.926 339.38-120.754"/><path d="M-301.832 171.408c8.236-79.29 46.817-148.991 105.847-197.477C-160.304-55.46-117.158-77.094-69.38-89.15c31.698-8.138 65.433-12.325 100.032-12.279 82.526-.116 168.993 22.524 257.041 55.37 21.139 8.035 42.157 16.254 62.695 25.207 70.326 30.188 136.247 65.102 197.766 97.666 79.941 42.233 153.63 80.909 234.685 98.705 17.936 3.846 36.352 6.958 55.146 8.481 67.927 6.08 133.017-6.732 198.455-26.133 73.07-21.495 147.55-50.716 218.13-69.907a975.248 975.248 0 0 1 28.52-7.325c70.06-16.381 139.85-23.764 211.05-17.127 56.6 5.239 114.91 19.982 173.54 50.919 31.39 16.567 61.67 37.382 91.69 59.082 62.13 44.76 125.12 94.272 198.19 107.118 91.96 15.742 166.64-31.962 211.07-94.961 6.11-8.854 11.87-17.676 16.94-26.95 41.61-75.85 54.56-164.383 83.03-244.874 7.01-20.328 15.29-40.085 24.5-59.238 50.54-106.194 132.33-194.6 232.72-255.405 100.14-60.438 217.45-92.106 333.06-99.455"/><path d="M-303.095 183.951c9.177-79.724 49.858-149.102 111.191-195.56 36.948-28.302 81.585-48.176 129.919-58.56 32.262-6.982 66.553-9.496 100.895-8.044 82.816 3.48 168.279 30.183 256.781 63.85a4148.352 4148.352 0 0 1 63.517 24.957c71.277 29.237 138.073 60.79 199.2 88.904 79.454 36.411 151.159 68.023 229.971 80.161 17.372 2.692 35.112 4.314 53.451 5.016 66.01 1.944 129.508-13.479 194.73-34.069 72.74-23.018 148.97-51.365 220.89-67.576 9.62-2.107 19.25-4.214 29.21-5.835 71.16-12.516 139.69-14.431 209.64-3.363 55.38 8.632 112.24 26.1 169.54 59.058 30.68 17.67 60.36 39.403 89.55 61.872 60.82 46.262 123.18 98.249 197.07 111.365 91.25 16.326 165-31.983 209.76-93.977 6.23-8.52 12.11-17.525 17.05-26.615 42.41-74.545 58.12-160.747 88.89-238.691 7.82-19.54 16.44-38.811 26.1-57.144 53.63-102.342 138.27-186.009 239.71-240.355 101.2-53.978 217.67-77.284 326.74-78.155"/><path d="M-304.359 196.494c10.12-80.156 52.899-149.213 116.425-193.977 38.446-27.062 84.11-45.479 133.463-53.886 33.059-5.677 67.444-6.819 102.11-3.845 83.106 7.078 167.446 38.028 256.521 72.332 21.601 8.336 42.97 16.522 63.989 24.74 71.876 28.317 139.899 56.477 200.632 80.141 79.08 30.923 148.92 55.29 225.139 61.802 16.926 1.353 33.981 2.003 51.876 1.367 63.973-2.008 125.999-20.228 191.124-42.189 72.54-24.724 150.5-52.199 223.66-65.246 9.73-1.772 19.58-3.21 29.53-4.312 72.27-8.65 139.65-4.763 207.89 10.434 54.15 12.026 109.8 32.368 165.55 67.197 29.96 18.773 59.03 41.425 87.75 64.628 59.38 47.95 121.36 102.043 195.71 115.461 90.54 16.392 163.6-31.851 208.46-92.992 6.23-8.519 11.98-17.341 17.39-26.13 43.2-73.238 61.69-157.11 94.75-232.507 8.39-18.904 17.47-37.354 27.82-55.234 56.72-98.488 143.85-177.384 246.7-225.304 102.38-47.704 218.01-62.647 320.42-56.856"/><path d="M-305.623 209.038c11.063-80.59 56.171-149.174 121.769-192.061C-144.14-8.995-97.217-25.804-46.846-32.236c33.504-4.338 68.334-4.14 103.094.206 83.507 11.009 166.381 45.72 256.261 80.811 21.832 8.488 43.202 16.673 64.691 24.675 72.828 27.366 141.374 52.198 202.067 71.379 78.594 25.101 146.448 42.405 220.425 43.259 16.362.197 32.972-.491 50.182-2.099 61.935-5.959 122.488-26.975 187.406-50.124 72.44-26.096 152.03-53.033 226.42-62.917 10.08-1.286 20.03-2.388 29.98-2.972 73.14-4.935 139.49 4.57 206.25 24.047 52.81 15.603 107.13 38.485 161.44 75.519 29.24 19.876 57.71 43.447 85.59 67.419 57.96 49.636 119.55 105.837 194.59 119.707 89.96 16.792 161.96-31.87 207.16-92.007 6.46-8.369 12.1-17.007 17.5-25.795 43.88-71.748 65.02-153.625 100.61-226.325a558.208 558.208 0 0 1 29.77-53.172c59.81-94.636 149.78-168.792 253.7-210.253 103.44-41.245 218.22-47.826 314.1-35.557"/><path d="M-306.998 221.246c11.885-80.839 59.212-149.285 126.883-190.294 40.981-24.883 89.162-40.084 140.552-44.54 34.069-3.183 69.224-1.462 104.189 4.59 83.797 14.606 165.667 53.38 256.121 89.109 21.712 8.67 43.784 16.79 65.393 24.609 73.428 26.447 143.2 47.885 203.501 62.616 78.339 19.43 143.857 29.703 215.361 24.749 15.796-.958 31.841-2.802 48.606-5.749 59.898-9.91 119.33-33.755 183.572-58.394 72.12-27.619 153.33-54.017 229.42-60.435 10.19-.952 20.36-1.385 30.42-1.634 74.24-1.069 139.33 13.904 204.5 37.844 51.35 18.846 104.33 44.787 157.21 83.507 28.52 20.979 56.16 45.318 83.68 70.359 56.87 51.291 117.49 109.48 193.11 123.988 89.25 16.857 160.56-31.74 205.86-91.023 6.33-8.185 12.2-16.672 17.84-25.31 44.91-70.291 68.58-149.988 106.47-220.14a542.728 542.728 0 0 1 31.37-51.08c62.9-90.782 155.71-160.199 260.45-195.353 104.63-34.97 218.44-33.005 307.9-14.441"/><path d="M-308.262 233.79c12.828-81.273 62.134-149.214 132.347-188.562C-133.666 21.435-83.995 7.993-32.049 5.21 2.696 3.518 38.296 6.578 73.355 14.002c84.087 18.203 164.602 61.073 255.861 97.589 21.943 8.822 44.015 16.942 65.865 24.392 74.259 25.679 145.026 43.573 204.934 53.853 77.852 13.609 141.618 16.97 210.528 6.391 15.12-2.448 30.831-5.296 46.911-9.215 57.981-14.045 115.821-40.503 179.966-66.514 71.79-29.142 154.87-54.85 232.07-57.92 10.18-.434 20.69-.381 30.86-.296 75.35 2.798 139.18 23.239 202.87 51.458 50.12 22.239 101.66 50.904 153.22 91.647 27.8 22.081 54.84 47.339 81.64 72.964 55.45 52.978 115.68 113.274 191.99 128.234 88.43 17.107 158.92-31.759 204.56-90.038 6.33-8.185 12.31-16.337 17.83-24.791 45.7-68.985 72.14-146.352 112.44-214.142a530.522 530.522 0 0 1 33.1-49.168c65.99-86.93 161.52-151.424 267.45-180.303 105.68-28.511 218.65-18.184 301.57 6.859"/><path d="M-309.526 246.333c13.77-81.706 65.175-149.325 137.461-186.796C-128.549 36.834-77.619 25-24.655 24.194c35.31-.538 71.355 3.86 106.388 12.84 84.377 21.8 163.888 68.733 255.601 106.07 22.174 8.973 44.597 17.06 66.567 24.326 75.21 24.728 146.621 39.11 206.599 45.242 77.478 8.121 139.027 4.269 205.815-12.152 14.555-3.603 29.821-7.791 45.217-12.681 55.943-17.996 112.31-47.25 176.238-74.449 71.7-30.514 156.41-55.684 234.84-55.591 10.52.053 20.92.29 31.42 1.379 76.22 6.513 139.02 32.572 201.12 65.254 48.89 25.633 99.21 57.173 149.22 99.786 27.07 23.184 53.52 49.361 79.72 75.905 54.02 54.665 113.86 117.068 190.63 132.33 87.84 17.507 157.64-31.812 203.26-89.054 6.44-7.85 12.55-16.186 18.18-24.305 46.49-67.678 75.47-142.866 118.3-207.958a519.089 519.089 0 0 1 34.81-47.259c69.08-83.077 167.23-142.982 274.44-165.251 106.74-22.053 219-3.547 295.26 28.157"/><path d="M-310.669 258.693c14.712-82.139 68.215-149.437 142.925-185.063 44.783-21.614 96.972-31.84 150.835-30.486 35.755.801 72.245 6.538 107.602 17.041 84.667 25.397 163.054 76.577 255.341 114.55 22.405 9.124 44.829 17.211 67.038 24.11 75.811 23.808 148.448 34.797 208.033 36.479 76.992 2.299 136.556-8.616 200.982-30.511 14.11-4.943 28.46-10.252 43.642-16.33 53.906-21.948 108.801-53.998 172.411-82.72 71.37-32.037 157.93-56.518 237.6-53.26a329.5 329.5 0 0 1 31.86 2.717c77.21 10.563 138.86 41.906 199.49 78.868 47.44 28.875 96.41 63.474 145.1 108.108 26.36 24.287 52.2 51.383 77.58 78.695 52.58 56.351 111.81 120.71 189.51 136.577 87.13 17.572 156-31.832 201.95-88.069 6.44-7.851 12.66-15.852 18.29-23.971 47.29-66.372 79.03-139.23 124.15-201.775 11.26-15.72 23.43-30.837 36.77-45.198 71.94-79.374 173.16-134.39 281.43-150.2 107.93-15.778 219.22 11.274 288.94 49.457"/><path d="M-311.933 271.236c15.655-82.572 71.487-149.397 148.038-183.297 46.171-20.708 99.73-28.99 154.15-25.964C26.573 63.932 63.62 71.343 98.95 83.401c84.957 28.994 162.109 84.086 255.081 123.03 22.517 9.459 45.411 17.33 67.74 24.045 76.762 22.857 150.274 30.485 209.347 27.9 76.737-3.372 134.197-21.166 196.037-49.205 13.546-6.097 27.451-12.746 41.947-19.796 51.989-26.083 105.292-60.745 168.687-90.655 71.05-33.56 159.12-57.319 240.36-50.93 10.98.872 21.71 2.113 32.31 4.056 78.31 14.429 138.71 51.24 197.86 92.481 46.21 32.269 93.74 69.591 141.11 116.248 25.64 25.389 50.65 53.253 75.65 81.635 51.27 57.854 110 124.504 188.16 140.672 86.31 17.823 154.36-31.851 200.65-87.084 6.32-7.666 12.77-15.517 18.63-23.485 48.09-65.066 82.59-135.593 130.01-195.592 11.83-15.084 24.81-29.412 38.37-43.104 74.91-75.337 179.09-125.798 288.19-135.3 108.99-9.319 219.43 26.095 282.62 70.756"/><path d="M-313.197 283.78c16.597-83.006 74.529-149.509 153.503-181.565C-112.025 82.748-57.439 75.922-2 80.925 34.996 84.372 72.255 92.97 107.68 106.4c85.478 32.742 161.276 91.929 254.709 131.176 22.749 9.61 45.643 17.48 68.444 23.979 77.361 21.937 152.099 26.172 210.78 19.137 76.131-9.011 131.726-34.05 191.204-67.564 12.981-7.253 26.441-15.241 40.372-23.445 49.952-30.035 101.782-67.493 165.081-98.775 70.96-34.931 160.65-58.152 243.13-48.6 11.09 1.208 22.04 3.118 32.64 5.58 79.18 18.143 138.77 60.724 196.1 106.278 44.98 35.661 91.06 75.708 136.88 124.235 24.92 26.492 49.33 55.275 73.62 84.241 50.08 59.692 108.18 128.298 187.04 144.919 85.84 18.039 152.96-31.72 199.34-86.1 6.56-7.515 12.65-15.333 18.75-23.15 48.88-63.76 86.15-131.957 135.87-189.409 12.4-14.446 25.95-28.138 40.08-41.193 78.01-71.485 184.91-117.023 295.19-120.25 110.17-3.043 219.65 40.916 276.3 92.056"/><path d="M-314.692 296.172c17.771-83.288 77.57-149.62 158.616-179.799C-107.139 97.995-51.294 92.778 5.163 99.757c37.56 4.602 75.145 14.724 110.895 29.677 85.768 36.338 160.33 99.438 254.449 139.656 22.98 9.76 46.225 17.598 68.915 23.762 78.312 20.986 153.574 21.893 212.214 10.375 75.875-14.682 129.134-46.752 186.49-86.107a1813.81 1813.81 0 0 0 38.447-27.062c47.914-33.986 98.392-74.425 161.357-106.71 70.63-36.455 162.19-58.986 245.9-46.27a316.732 316.732 0 0 1 33.31 7.069c80.28 22.01 138.74 69.874 194.47 119.891 43.53 38.905 88.27 82.01 132.77 132.559 24.43 27.745 48.01 57.296 71.7 87.181 48.64 61.379 106.13 131.941 185.68 149.015 85.02 18.288 151.32-31.739 198.04-85.115 6.56-7.516 12.76-14.998 19.09-22.665 49.91-62.302 89.48-128.471 141.72-183.225 12.98-13.81 27.11-26.865 42.04-39.133 81.1-67.631 190.61-108.58 302.19-105.198 111.22 3.415 219.86 55.737 270.09 113.171"/><path d="M-315.836 308.531c18.593-83.537 80.491-149.547 164.081-178.065 50.204-17.288 107.307-20.897 164.783-11.943 38.006 5.941 76.035 17.402 111.759 33.91 86.058 39.936 159.497 107.282 254.189 148.137 23.091 10.095 46.456 17.749 69.617 23.696 78.913 20.067 155.401 17.581 213.648 1.613 75.39-20.504 126.895-59.485 181.658-104.466 11.97-9.747 24.3-20.046 36.871-30.711 45.877-37.938 94.883-81.173 157.52-114.982 70.31-37.977 163.72-59.82 248.67-43.94 11.42 2.213 22.59 4.792 33.75 8.41 81.16 25.724 138.58 79.207 192.72 133.688 42.3 42.297 85.83 88.278 128.77 140.697 23.71 28.848 46.69 59.318 69.55 89.971 47.33 62.882 104.32 135.735 184.56 153.262 84.32 18.354 149.92-31.609 196.74-84.131 6.44-7.332 12.87-14.663 19.08-22.146 50.71-60.996 93.05-124.835 147.58-177.042 13.78-13.023 28.25-25.592 43.64-37.039 84.19-63.779 196.54-99.989 309.18-90.148 112.4 9.691 220.2 70.375 263.77 134.471"/><path d="M-317.1 321.075c19.536-83.97 83.763-149.508 169.195-176.3 51.471-16.199 110.064-18.049 168.096-7.421 38.802 7.248 77.156 20.231 112.974 38.112 86.348 43.533 158.552 114.791 253.929 156.617 23.322 10.246 46.687 17.9 70.088 23.48 79.864 19.115 157.227 13.268 215.082-7.15 75.134-26.175 124.304-72.187 176.593-122.976 11.526-11.086 23.171-22.356 35.177-34.177 43.959-42.073 91.372-87.92 153.796-122.917 70.34-39.533 165.26-60.653 251.43-41.61a297.411 297.411 0 0 1 34.21 9.748c82.25 29.591 138.42 88.541 191.08 147.302 41.07 45.691 83.03 94.579 124.78 148.836 23.57 30.069 45.95 61.458 68.21 93.03 45.9 64.569 102.5 139.528 183.2 157.357 83.85 18.571 148.28-31.628 195.44-83.146 6.67-7.181 13.1-14.513 19.42-21.66 51.38-59.507 96.49-121.015 153.44-170.859 14.35-12.386 29.4-24.319 45.36-35.129 87.28-59.926 202.36-91.213 315.94-75.248 113.46 16.149 220.42 85.196 257.45 155.77"/><path d="M-318.363 333.618c20.478-84.403 86.804-149.62 174.659-174.567 52.738-15.109 112.59-15.35 171.64-2.747 39.247 8.586 78.167 22.725 114.189 42.312 86.638 47.13 157.718 122.635 253.789 164.914 23.553 10.398 47.27 18.018 70.791 23.414 80.464 18.197 158.822 8.805 216.515-15.913 74.529-31.813 122.065-84.92 171.88-141.518 10.961-12.241 21.93-25.001 33.602-37.827 41.922-46.024 87.863-94.668 150.198-131.036 70.01-41.056 166.55-61.638 254.19-39.28 11.65 2.882 23.27 6.8 34.53 11.27 83.36 33.458 138.27 97.876 189.33 161.1 39.85 49.084 80.36 100.696 120.79 156.975 22.27 31.054 43.82 63.21 65.6 95.518 44.46 66.255 100.44 143.171 182.07 161.604 83.02 18.82 146.88-31.497 194.14-82.162 6.55-6.997 13.21-14.178 19.53-21.326 52.18-58.2 99.82-117.529 159.3-164.676 14.92-11.748 30.54-23.045 47.08-33.218 90.37-56.073 208.29-82.621 323.05-60.381 114.64 22.424 220.41 99.866 251.13 177.07"/><path d="M-319.507 345.978c21.42-84.837 89.845-149.732 179.772-172.802 54.006-14.019 115.117-12.652 175.066 2.111 39.812 9.741 79.056 25.403 115.172 46.362 87.159 50.878 157.004 130.294 253.529 173.394 23.784 10.548 47.501 18.169 71.493 23.349 81.415 17.244 160.648 4.493 217.949-24.676 74.274-37.484 119.705-97.47 167.047-159.878 10.396-13.396 20.92-27.495 31.907-41.292 39.885-49.976 84.353-101.415 146.362-139.307 69.68-42.578 168.09-62.47 257.07-36.614a254.901 254.901 0 0 1 35.21 12.76c84.23 37.173 138.33 107.36 187.92 174.863 38.63 52.479 77.57 106.998 116.44 165.148 21.55 32.156 42.5 65.231 63.45 98.307 43.27 68.093 98.63 146.965 180.6 165.883 82.32 18.886 145.24-31.516 193.07-81.026 6.55-6.997 13.32-13.843 19.87-20.84 52.98-56.894 103.39-113.892 165.28-158.676 15.5-11.112 31.92-21.621 49.03-31.158 93.46-52.219 213.99-74.179 330.04-45.329 115.71 28.883 220.63 114.686 244.81 198.369"/><path d="M-320.771 358.521c22.363-85.269 92.886-149.843 185.117-170.884 55.273-12.93 117.642-9.956 178.379 6.632 40.377 10.897 80.177 28.233 116.267 50.747 87.449 54.475 155.939 137.987 253.269 181.875 23.664 10.732 48.084 18.287 71.964 23.132 82.247 16.477 162.475.18 219.614-33.288 73.788-43.306 117.234-110.354 162.334-178.42a1806.906 1806.906 0 0 1 30.332-44.942c37.968-54.111 80.844-108.163 142.635-147.242 69.59-43.95 169.51-63.121 259.84-34.285 11.98 3.886 23.82 8.475 35.65 14.1 85.34 41.039 138.3 116.51 186.3 188.476 37.39 55.872 74.88 113.116 112.44 173.287 20.6 33.108 41.18 67.253 61.53 101.247 41.96 69.597 96.7 150.424 179.48 170.131 81.62 18.951 143.95-31.57 191.76-80.042 6.78-6.846 13.44-13.508 19.98-20.505 53.78-55.588 106.95-110.257 171.14-152.493a480.359 480.359 0 0 1 50.63-29.064c96.55-48.366 219.93-65.587 336.81-30.43 116.88 35.158 220.96 129.324 238.61 219.485"/><path d="M-322.266 370.914c23.305-85.703 96.158-149.804 190.35-169.303 56.772-11.689 120.4-7.106 181.924 11.306 41.053 12.387 81.067 30.911 117.482 54.948 87.739 58.072 155.225 145.647 253.009 190.355 23.895 10.883 48.315 18.438 72.787 22.883 82.966 15.374 164.3-4.132 220.927-41.867 73.413-48.793 114.995-123.088 157.27-196.93 9.154-16.042 18.78-32.3 28.637-48.407 35.93-58.063 77.454-115.095 139.03-155.363 69.27-45.472 171.04-63.954 262.61-31.954 12.09 4.221 24.15 9.479 35.97 15.623 86.44 44.904 138.15 125.844 184.55 202.273 35.94 59.114 72.09 119.417 108.45 181.425 19.87 34.211 39.62 69.125 59.49 103.854 40.53 71.284 94.89 154.218 178.12 174.226 81.15 19.168 142.33-31.589 190.47-79.057 6.66-6.662 13.31-13.325 20.2-19.836 54.8-54.13 110.28-106.771 176.99-146.31 16.77-10.022 34.22-19.073 52.36-27.153 99.64-44.514 225.74-56.812 343.8-15.379 117.94 41.617 221.17 144.145 232.28 240.784"/><path d="M-323.53 383.457c24.248-86.136 99.079-149.731 195.695-167.386 58.04-10.599 122.926-4.408 185.468 15.98 41.618 13.542 81.958 33.588 118.466 58.998 88.029 61.668 154.16 153.339 252.869 198.651 24.127 11.034 48.897 18.557 73.258 22.666 83.797 14.606 165.775-8.412 222.361-50.629 72.927-54.616 112.404-135.789 152.436-215.289a1935.452 1935.452 0 0 1 27.063-52.057C937.979 132.377 978.03 72.549 1039.4 31.093c68.94-46.995 172.34-64.939 265.37-29.624 12.43 4.707 24.61 10.3 36.42 16.962 87.31 48.62 138.21 135.328 182.91 215.886 34.71 62.508 69.42 125.534 104.33 189.748 19.16 35.314 38.43 70.962 57.58 106.794 39.09 72.971 92.83 157.861 177 178.473 80.32 19.417 140.91-31.457 189.16-78.073 6.89-6.511 13.55-13.173 20.32-19.5 55.59-52.824 113.83-103.135 182.84-140.127 17.34-9.386 35.37-17.8 54.08-25.243 102.73-40.661 231.44-48.371 350.79-.328 119.35 48.042 221.39 158.966 225.97 262.083"/><path d="M-324.674 395.817c25.071-86.386 102.121-149.843 200.928-165.804 98.808-15.962 216.907 16.321 308.343 83.884 88.319 65.266 153.327 161.184 252.609 207.132 107.632 49.828 225.084 23.496 297.755-36.791 72.672-60.287 110.164-148.523 147.723-233.832 37.56-85.309 79-172.016 156.846-227.091 77.84-55.075 202.58-69.835 305-8.993 88.42 52.486 138.06 144.662 181.16 229.684 51.92 102.317 103.96 204.969 155.88 307.286 37.9 74.809 91.02 161.655 175.65 182.569 79.5 19.667 139.28-31.477 187.85-77.088 76.14-71.656 159.57-139.333 265.05-176.108 105.82-36.808 237.37-39.779 357.78 14.723 120.41 54.501 221.61 173.787 219.64 283.382"/><path d="M-303.781 349.168c33.085-76.435 112.597-126.488 206.57-133.024 94.204-6.385 201.104 31.431 288.838 103.654 83.469 68.652 148.802 166.093 248.272 214.785 107.589 52.421 227.771 30.493 302.413-28.77 72.627-57.694 109.51-144.493 148.542-227.005 40.49-85.756 86.247-172.003 165.866-228.28 77.48-54.523 199.44-71.095 301.78-12.143 88.21 50.779 138.93 141.82 182.03 226.323 51.48 100.978 102.49 202.173 153.97 303.151 38.14 74.441 91.97 160.703 176.6 181.617 79.85 19.634 140.43-30.722 189.36-76.366 75.07-70.52 156.73-137.515 261.03-174.008 104.3-36.492 234.56-38.997 353.34 14.966 118.79 53.963 218.97 171.273 218.77 279.668"/><path d="M-283.24 302.553c40.979-66.301 122.723-103.102 212.092-100.061 89.37 3.04 185.303 46.54 269.104 123.273 78.619 72.039 144.046 170.851 244.054 222.254 107.665 54.83 230.458 37.491 307.19-20.932 72.704-55.286 109.089-140.312 149.362-220.18 43.419-86.201 93.374-171.805 174.888-229.466 76.66-54.275 196.66-72.389 298.56-15.295 87.89 49.256 139.67 139.162 182.91 222.963 51.15 99.455 100.89 199.56 152.05 299.016 38.49 74.408 93.15 159.902 177.65 181 80.32 19.936 141.71-29.633 190.99-75.31 74.22-69.233 154.25-135.729 256.9-171.723 103.12-36.211 231.62-38.033 349.13 15.359 117.5 53.392 216.08 168.609 217.66 275.802"/><path d="M-262.578 255.753c48.642-56.316 132.967-79.898 217.502-67.432 84.655 12.282 169.391 61.316 249.6 143.043 73.89 75.242 139.281 176.129 239.717 229.908 107.732 57.757 233.026 44.671 312.078-12.761 72.66-52.693 109.02-136.164 150.414-213.202 46.58-86.497 100.497-171.608 183.677-230.806 76.07-53.874 193.64-73.832 295.11-18.596 87.68 47.55 140.42 136.503 183.78 219.602 51.06 98.084 99.43 196.765 150.14 294.881 38.6 74.224 94.1 158.951 178.6 180.048 80.55 20.087 142.86-28.878 192.72-74.436 73.39-67.947 151.77-133.944 252.55-169.59 101.59-35.896 228.79-37.252 344.68 15.602 115.88 52.854 213.44 166.094 216.56 271.935"/><path d="M-241.685 209.105c56.536-46.182 143.092-56.512 223.144-34.653 79.82 21.708 153.477 76.091 229.864 162.662 69.049 78.11 134.526 180.887 235.731 237.528 107.689 60.35 235.482 51.518 316.855-4.923 72.506-50.435 108.83-131.832 151.354-206.56 49.51-86.943 107.627-171.411 192.697-231.993 75.48-53.474 190.74-74.942 291.89-21.747 87.48 45.843 141.28 133.661 184.78 216.058 50.73 96.56 97.83 194.152 148.21 290.745 38.96 74.192 95.06 157.999 179.56 179.097 80.9 20.054 144.13-27.788 194.11-73.531 72.78-66.509 149.28-132.159 248.41-167.306 100.31-35.429 226.21-36.319 340.24 15.845 114.02 52.165 210.56 163.43 215.46 268.07"/><path d="M-221.024 162.305c64.551-36.231 152.987-33.275 228.786-1.873 74.754 30.983 137.685 90.682 210.361 182.432 64.439 81.13 129.88 185.981 231.393 245.182 107.765 62.758 237.938 58.363 321.512 3.097 72.351-48.177 103.211-131.306 152.174-199.733 59.377-82.86 114.878-171.398 201.718-233.181 74.88-53.074 187.96-76.235 288.44-25.049 87.15 44.321 142.03 131.003 185.65 212.697 50.41 95.038 96.01 191.389 146.3 286.611 39.08 74.007 96.24 157.198 180.74 178.295 81.36 20.356 145.52-26.882 195.85-72.657 71.94-65.223 146.79-130.374 244.28-165.022 98.78-35.115 223.27-35.355 336.14 16.055 112.75 51.593 207.69 160.764 214.36 264.203"/><path d="M-200.131 115.657c72.445-26.096 163-10.224 234.076 30.939 69.688 40.257 121.892 105.273 190.746 201.867 59.718 83.814 125.005 190.923 227.056 252.835 107.721 65.351 240.394 65.209 326.289 10.935 72.076-45.735 102.678-127.46 153.225-192.756C994.835 337.26 1053.26 248.276 1142 185.108c74.06-52.824 184.94-77.679 285.22-28.2 87.18 42.765 142.77 128.345 186.76 209.488 50.08 93.515 94.41 188.776 144.5 282.291 39.43 73.975 97.19 156.247 181.57 177.528 81.59 20.507 146.55-25.944 197.59-71.785 71.1-63.936 144.08-128.739 240.27-162.921 97.61-34.833 220.45-34.574 331.69 16.297 111.24 50.872 205.04 158.251 213.38 260.154"/><path d="M-179.589 69.041C-99.481 52.93-6.575 81.87 60.128 132.76c64.742 49.348 106.22 119.68 171.242 221.637 55.229 86.649 120.48 195.833 223.071 260.455 107.677 67.944 242.729 72.239 331.066 18.772 71.92-43.477 102.496-123.646 154.044-185.929 67.659-81.908 129.359-170.853 219.529-235.708 73.47-52.424 182.04-78.789 282-31.35 86.97 41.058 143.87 125.653 187.63 206.126 49.76 91.993 92.95 185.98 142.59 278.157 39.55 73.791 98.13 155.294 182.52 176.576 81.82 20.657 147.94-25.038 198.97-70.879 70.26-62.65 141.48-126.77 236.15-160.638 96.08-34.517 217.63-33.792 327.47 16.692 109.85 50.484 202.17 155.585 212.27 256.287"/><path d="M-158.697 22.393c88.002-5.978 183.029 35.88 245.36 96.499 59.916 58.254 90.666 133.903 151.738 241.406 50.859 89.301 115.724 200.591 218.733 268.108 107.754 70.353 245.186 79.086 335.955 26.945 71.765-41.22 102.657-119.348 154.864-179.104 71.397-81.566 136.607-170.839 228.547-236.896 72.88-52.023 179.03-80.232 278.55-34.651 86.65 39.535 144.74 122.811 188.51 202.766 49.67 90.62 91.35 183.368 140.67 274.021 40.02 73.574 99.32 154.494 183.47 175.624 82.41 20.776 148.97-24.099 200.71-70.005 69.42-61.364 138.99-124.985 231.78-158.505 94.79-34.051 214.82-33.012 323.04 16.934 108.21 49.946 199.51 153.072 211.39 252.572"/><path d="M-138.035-24.407c95.896 4.157 192.93 58.599 251.001 129.279 55.09 67.162 75.114 148.126 132.003 261.025 46.258 91.802 111.079 205.685 214.516 275.578 107.71 72.945 247.41 85.78 340.732 34.781 71.258-38.928 109.515-110.151 155.804-172.46 66.019-88.485 143.729-170.643 237.569-238.084 72.29-51.623 176.24-81.525 275.33-37.802 86.44 37.829 145.48 120.153 189.38 199.405 49.34 89.098 89.88 180.571 138.75 269.886 40.14 73.39 100.27 153.542 184.54 175.007 82.64 20.927 150.13-23.344 202.33-68.949 68.58-60.077 136.5-123.199 227.65-156.22 93.39-33.92 211.88-32.047 318.82 17.328 106.71 49.224 196.64 150.407 210.29 248.706"/><path d="M-117.143-71.055C-13.463-57.1 86.274 10.379 139.269 90.852c50.264 76.069 59.792 162.501 112.5 280.795 42.119 94.604 106.323 210.443 210.178 283.231 107.786 75.355 249.867 92.627 345.389 42.803 70.872-36.822 109.908-105.701 156.855-165.483 69.639-88.479 150.859-170.446 246.359-239.423 71.7-51.223 173.11-82.786 271.88-41.104 86.23 36.122 146.23 117.495 190.26 196.044 49.01 87.575 88.28 177.96 136.83 265.751 40.49 73.358 101.22 152.591 185.49 174.056 82.87 21.078 151.39-22.255 203.84-68.227 67.5-58.941 133.78-121.565 223.52-153.936 92.09-33.454 209.06-31.266 314.37 17.571 105.31 48.836 193.99 147.892 209.19 244.839"/><path d="M-96.481-117.855C15.093-93.763 117.069-13.552 165.452 77.016c45.438 84.976 44.591 176.692 92.765 300.414 37.869 97.072 101.678 215.537 206.072 291.035 107.974 78.098 251.86 99.171 350.166 50.64 70.486-34.714 110.3-101.251 157.675-158.657 73.15-88.807 158.11-170.432 255.38-240.61 70.87-50.973 170.32-84.079 268.66-44.255 85.91 34.6 147.09 114.653 191.13 192.684 48.69 86.052 87.05 175.314 135.04 261.432 40.84 73.324 102.4 151.789 186.43 173.103 83.11 21.229 152.56-21.5 205.46-67.169 66.67-57.655 131.31-119.781 219.51-151.836 90.57-33.139 206.25-30.485 309.93 17.813 103.68 48.299 191.12 145.228 208.09 240.974"/><path d="M-75.708-164.319C43.76-130.093 148.207-36.997 191.867 63.331c40.843 94.034 29.62 191.033 73.26 320.183C298.859 483.39 362.05 603.81 466.983 682.02c108.049 80.507 254.084 105.865 355.054 58.811 70.1-32.607 110.573-96.616 158.495-151.83 77.008-88.649 165.238-170.235 264.398-241.799 70.29-50.572 167.31-85.523 265.21-47.556 85.71 32.893 147.84 111.995 192.01 189.323 48.24 84.714 85.57 172.518 133.11 257.297 41.09 72.957 103.36 150.838 187.39 172.152 83.69 21.347 153.72-20.745 207.2-66.297 65.83-56.368 128.82-117.995 215.15-149.703 89.39-32.856 203.42-29.704 305.71 18.208 102.18 47.576 188.24 142.562 206.99 237.107"/><path d="M-55.047-211.119C72.085-166.909 179.354-60.961 218.17 49.311c36.248 103.092 14.65 205.375 53.526 339.802 29.712 102.495 92.398 225.206 197.518 306.159 108.006 83.1 256.309 112.561 359.831 66.649 69.602-30.835 111.196-92.015 159.666-145.037 80.629-88.642 172.359-170.038 273.189-243.137 69.69-50.172 164.4-86.633 261.99-50.707 85.5 31.186 148.82 109.487 192.88 185.962 47.92 83.191 83.98 169.906 131.2 253.162 41.43 72.924 104.31 149.886 188.45 171.535 83.92 21.498 154.98-19.656 208.71-65.575 64.98-55.082 126.21-116.026 211.02-147.419 88.1-32.39 200.48-28.739 301.38 18.267 100.78 47.189 185.6 140.048 205.88 233.241"/><path d="M-34.385-257.918C100.76-203.758 210.38-84.741 244.242 35.141c31.654 112.149-.32 219.716 34.022 359.571 25.694 105.113 87.522 230.148 193.532 313.78C579.878 794 730.219 827.413 836.284 783.162c69.216-28.729 111.82-87.415 160.486-138.211 84.84-88.518 179.49-169.841 282.21-244.325 69.22-49.956 161.39-88.076 258.77-53.858 85.17 29.664 149.68 106.645 193.75 182.602 47.6 81.668 82.51 167.109 129.29 249.026 41.78 72.892 105.49 149.086 189.4 170.584 84.15 21.649 156.14-18.901 210.33-64.518 63.91-53.947 123.49-114.392 206.89-145.135 86.57-32.075 197.89-27.807 297.17 18.66 99.27 46.467 182.71 137.384 204.77 229.376"/><path d="M-13.492-304.567C129.546-240.272 241.638-108.37 270.775 21.272c27.059 121.207-15.059 234.209 14.287 379.19 21.907 107.883 82.998 235.058 189.195 321.433 108.158 87.917 260.305 125.13 369.265 82.507 68.599-26.772 112.324-82.629 161.307-131.384 88.69-88.36 186.73-169.828 291.23-245.513 68.4-49.706 158.61-89.37 255.31-57.159 84.98 27.956 150.44 103.986 194.87 179.392 47.27 80.145 80.92 164.497 127.37 244.891 41.9 72.708 106.44 148.133 190.35 169.631 84.61 21.951 157.17-17.962 212.06-63.645 63.08-52.66 121.01-112.606 202.76-142.85 85.4-31.794 195.08-27.026 292.73 18.903 97.64 45.928 180.07 134.869 203.9 225.662"/><path d="M7.169-351.366c150.934 74.43 265.496 219.216 289.79 358.802 22.696 130.416-29.798 248.701-5.216 398.96 18.12 110.653 78.472 239.967 184.977 328.902 108.115 90.51 262.419 131.491 374.154 90.679 68.101-25 113.178-77.877 162.126-124.557 92.78-88.052 194.09-169.48 300.14-247.036 67.81-49.306 155.7-90.479 252.09-60.31 84.77 26.25 151.19 101.328 195.74 176.031 46.95 78.622 79.45 161.701 125.57 240.572 42.38 72.492 107.4 147.182 191.19 168.864 84.96 21.919 158.33-17.207 213.68-62.588 62.23-51.374 118.53-110.821 198.4-140.717 83.87-31.479 192.26-26.245 288.28 19.145 96.25 45.542 177.19 132.205 202.8 221.799"/><path d="M28.062-398.015C186.659-313.601 304.154-155.628 323.263-6.584c18.1 139.475-44.418 263.01-24.952 418.579 14.332 113.423 73.717 244.726 180.64 336.556 108.191 92.919 264.301 137.7 378.93 98.516 67.484-23.044 113.683-73.092 163.179-117.581 97.09-87.591 201.22-169.282 309.16-248.223 67.21-48.906 152.69-91.923 248.64-63.611 84.45 24.727 151.93 98.669 196.62 172.67 46.5 77.283 77.97 158.905 123.65 236.437 42.73 72.458 108.57 146.381 192.37 168.063 85.19 22.068 159.59-16.118 215.19-61.866 61.16-50.238 116.04-109.036 194.39-138.617 82.58-31.012 189.32-25.28 284.06 19.539 94.74 44.82 174.55 129.691 201.7 217.932"/><path d="M48.603-444.63c166.492 94.548 286.458 265.406 300.843 424.21 13.506 148.532-58.925 277.654-44.456 438.349 10.546 116.192 69.192 249.635 176.534 344.36 108.619 95.295 266.184 143.909 383.588 106.537 66.986-21.272 114.537-68.34 164.118-110.938 101.29-86.948 208.47-169.269 318.18-249.411 66.62-48.505 149.9-93.216 245.42-66.762 84.47 23.172 152.68 96.011 197.49 169.31 46.18 75.76 76.73 156.259 121.74 232.301 43.2 72.242 109.64 145.246 193.32 167.114 85.65 22.37 160.75-15.365 216.8-60.812 60.33-48.951 113.56-107.25 190.27-136.332 81.17-30.882 186.5-24.5 279.61 19.782 93.12 44.281 171.67 127.025 200.72 213.882"/><path d="M69.496-491.279C244.002-386.78 366.67-202.886 375.98-34.289c9.143 157.742-73.433 292.298-64.19 457.968 6.758 118.962 64.436 254.394 172.316 351.829 108.575 97.888 268.186 149.935 388.365 114.375 66.258-19.651 115.272-63.404 164.939-104.112 105.84-86.338 215.59-169.072 326.96-250.75 66.04-48.105 146.78-94.476 242.21-69.913 84.15 21.649 153.54 93.17 198.37 165.95 45.85 74.237 75.26 153.463 119.82 228.166 43.31 72.058 110.59 144.296 194.27 166.156 85.88 22.53 161.67-14.76 218.54-59.933 59.25-47.816 110.72-105.432 186.13-134.049 79.88-30.415 183.69-23.718 275.41 20.176 91.83 43.71 169.02 124.512 199.6 210.016"/><path d="M90.157-538.078c182.169 114.482 307.42 311.595 312.006 489.953 4.548 166.8-87.94 306.941-83.694 477.738 3.082 122.067 59.911 259.303 167.98 359.482 108.65 100.297 269.956 155.81 393.021 122.396 65.761-17.879 116.007-58.468 165.99-97.134 110.5-85.393 222.72-168.876 335.99-251.938 65.21-47.856 143.98-95.77 238.75-73.215 83.94 19.942 154.29 90.511 199.36 162.405 45.41 72.898 73.67 150.851 117.9 224.031 43.79 71.842 111.78 143.49 195.11 165.39 86.23 22.49 162.94-13.67 220.05-59.213 58.41-46.529 108.23-103.646 181.77-131.915 78.35-30.1 180.74-22.754 270.95 20.418 90.22 43.172 166.15 121.847 198.51 206.15"/><path d="M111.05-584.727C301.113-460.109 428.835-250.112 428.467-62.144c-.167 176.041-102.449 321.584-103.43 497.356-.474 124.988 55.036 264.246 163.994 367.103 108.607 102.889 271.728 161.684 398.03 130.384 65.263-16.107 116.739-53.532 166.809-90.308 115.04-84.264 229.85-168.679 345.01-253.126 64.62-47.455 140.97-97.214 235.53-76.365 83.74 18.235 155.04 87.852 200.24 159.044 45.08 71.376 72.19 148.054 116.33 219.863s112.73 142.543 196.29 164.593c86.46 22.64 164.1-12.92 221.67-58.16 57.57-45.243 105.75-101.861 177.64-129.631 77.18-29.818 177.93-21.972 266.86 20.628 88.59 42.634 163.27 119.183 197.4 202.283"/></g></svg>