<svg xmlns="http://www.w3.org/2000/svg" width="1919" height="520" fill="none"><path fill="url(#a)" d="m-3 61.75 80.083-10.292c80.084-10.291 240.25-30.875 400.417 0C637.667 82.333 797.833 164.667 958 216.125c160.17 51.458 320.33 72.042 480.5 30.875 160.17-41.167 320.33-144.083 400.42-195.542L1919 0v494H-3V61.75Z"/><path fill="url(#b)" d="m-3 87.75 80.083-10.292c80.084-10.291 240.25-30.875 400.417 0C637.667 108.333 797.833 190.667 958 242.125c160.17 51.458 320.33 72.042 480.5 30.875 160.17-41.167 320.33-144.083 400.42-195.542L1919 26v494H-3V87.75Z"/><defs><linearGradient id="a" x1="958" x2="958" y1="0" y2="494" gradientUnits="userSpaceOnUse"><stop stop-color="#A593C3"/><stop offset="1" stop-color="#fff"/></linearGradient><linearGradient id="b" x1="958" x2="958" y1="26" y2="520" gradientUnits="userSpaceOnUse"><stop stop-color="#937DB8"/><stop offset=".644" stop-color="#EEE"/><stop offset="1" stop-color="#fff"/></linearGradient></defs></svg>