<svg xmlns="http://www.w3.org/2000/svg" width="1919" height="482" fill="none"><mask id="a" width="2675" height="2695" x="-456" y="-1094" maskUnits="userSpaceOnUse" style="mask-type:luminance"><path fill="#fff" d="M731.024-1094-456 473.078 1031.86 1600.1 2218.89 33.02 731.024-1094Z"/></mask><g stroke-miterlimit="10" stroke-width="2" mask="url(#a)"><path stroke="#9254FF" d="M-646.126 627.475c-35.589-105.26 28.957-198.587 138.13-199.743 114.114-1.111 245.374 83.723 362.2 90.625 112.08 6.596 187.252-60.185 232.98-137.556 45.727-77.37 71.135-168.487 130.166-235.986C276.381 77.317 382.901 37.158 499.147 83.08c100.643 39.858 178.697 130.016 257.776 208.002 79.178 77.855 187.899 156.509 278.067 145.276 106.2-13.07 110.54-128.158 154.4-196.875 74.73-116.437 230.67-171.984 409.08-132.404 182.01 40.247 371 176.001 469.77 337.342"/><path stroke="#9156FF" d="M-648.722 602.696c-31.834-103.649 33.408-194.804 141.837-196.524 88.362-1.505 187.023 47.539 281.43 73.218 26.974 7.28 53.526 12.8 79.329 14.671C-34.08 501.864 42.251 440.893 89.87 370.3c32.512-48.332 55.876-102.361 86.121-151.177 13.979-22.705 29.533-44.012 48.633-63.044 24.195-24.214 55.977-44.533 92.784-57.961 54.969-20.018 120.128-24.507 188.411.498 17.683 6.407 34.465 14.392 50.927 23.573 75.662 42.31 140.46 111.328 206.117 173.803 10.355 9.899 21.281 19.819 32.492 29.75 75.359 65.509 165.461 124.305 243.125 117.987 13.44-1.125 25.12-3.789 35.6-7.972 40.1-15.456 61.75-49.825 79.88-87.675 14.49-30.334 26.48-63.173 43.9-89.645a382.953 382.953 0 0 1 13.39-18.835c25.41-33.16 57.42-61.117 94.93-82.436 79.08-44.504 183.32-58.852 296.87-34.493 34.77 7.427 70 18.493 104.66 32.624 145.99 59.205 284.49 172.743 363.65 302.786"/><path stroke="#9158FF" d="M-651.22 577.785c-27.992-101.766 37.761-190.89 145.544-193.304 87.718-2.199 185.869 44.814 280.188 70.222 26.789 7.139 53.241 12.79 79.132 14.932 112.097 9.28 189.6-46.282 239.11-110.099 33.708-43.727 58.627-92.467 89.485-136.297 14.292-20.413 30.159-39.428 49.484-56.439 24.496-21.521 56.678-39.275 93.833-51.618 55.579-18.118 119.831-24.115 186.859-1.705 17.324 5.724 34.031 13.035 50.132 21.532 74.717 38.922 139.907 104.332 206.267 165.491 10.554 9.638 21.479 19.558 32.888 29.227 75.952 64.725 163.938 124.385 240.858 120.991 13.22-.462 24.89-2.724 35.45-6.233 40.31-13.034 63.11-44.678 82.7-80.194 15.58-28.685 28.5-60.819 46.11-87.15 4.27-6.42 8.74-12.698 13.39-18.836 25.31-33.029 56.47-61.419 93.61-83.02 77.68-45.359 181.37-60.532 294.38-36.997 34.68 7.155 69.54 17.939 104.3 31.94 145.73 58.39 284.14 171.656 362.54 301.539"/><path stroke="#905AFF" d="M-653.718 552.876c-24.051-100.014 42.3-186.836 149.253-190.085 87.258-2.752 184.811 41.958 278.659 67.216 26.789 7.138 53.242 12.789 78.934 15.193 111.963 10.617 190.724-39.265 242.127-96.306 34.902-39.122 61.377-82.574 93.035-121.277 14.604-18.121 30.784-34.844 50.421-49.563 24.984-18.685 57.478-34.148 94.882-45.275 56.102-16.488 119.25-23.733 185.21-3.776 16.963 5.039 33.31 11.667 49.15 19.35 73.771 35.533 139.253 97.465 206.417 157.178 10.653 9.507 21.59 19.025 33.097 28.564 76.459 63.67 162.328 124.192 238.483 124.124 13.11.072 24.67-1.658 35.21-4.363 40.24-10.621 64.56-39.259 85.43-72.985 16.86-26.894 30.53-58.465 48.22-84.525 4.27-6.419 8.92-12.557 13.47-18.564 25.31-33.029 55.82-61.711 92.12-83.744 76.38-46.346 179.52-62.343 291.7-39.644 34.49 7.015 69.36 17.397 103.94 31.256 145.18 57.566 283.69 170.702 361.72 300.302"/><path stroke="#905DFF" d="M-656.216 527.965c-20.208-98.131 46.653-182.922 153.06-186.995 86.799-3.305 183.655 39.233 277.417 64.219 26.789 7.139 52.956 12.779 78.736 15.454 111.927 11.823 191.848-32.247 245.142-82.512 36.197-34.648 64.412-72.67 96.399-106.397 14.917-15.83 31.124-30.27 51.273-42.959 25.383-16.122 58.277-29.021 96.029-39.062 56.624-14.859 118.954-23.342 183.56-5.849 16.789 4.497 32.775 10.441 48.354 17.309 72.826 32.146 138.885 90.611 206.568 148.866 10.565 9.236 21.7 18.493 33.307 27.901 77.151 62.756 160.618 124.13 236.201 127.128 12.82.463 24.64-.452 35.07-2.625 40.26-8.339 65.93-34.111 88.25-65.504 17.85-25.114 32.55-56.111 50.61-81.889 4.47-6.279 8.93-12.557 13.48-18.564 25.4-32.758 54.88-62.014 90.72-84.6 75.07-47.332 177.38-64.164 289.2-42.149 34.41 6.743 69.09 16.984 103.58 30.573 144.92 56.751 283.06 169.605 360.62 299.054"/><path stroke="#8F5FFF" d="M-658.714 503.055c-16.453-96.52 51.192-178.867 156.767-183.775 86.155-4 182.6 36.377 275.989 61.081 26.603 6.998 52.77 12.638 78.538 15.716 111.979 13.3 193.257-25.221 248.257-68.85 37.578-29.903 67.163-62.777 100.048-91.508 15.23-13.537 31.75-25.686 52.211-36.082 25.87-13.287 58.977-23.764 97.078-32.719 57.047-13.1 118.558-22.819 182.008-8.051 16.43 3.813 32.155 8.943 47.473 14.996 71.879 28.757 138.33 83.614 206.717 140.553 10.763 8.975 21.997 18.101 33.418 27.368 77.657 61.702 159.007 123.939 233.74 129.991 12.71.996 24.32.744 34.92-.885 40.3-6.058 67.21-28.833 90.99-58.295 18.94-23.465 34.57-53.758 52.82-79.395 4.46-6.278 9.01-12.286 13.66-18.423 25.3-32.627 54.22-62.306 89.22-85.325 73.67-48.187 175.44-65.844 286.81-44.784 34.32 6.471 68.82 16.572 103.22 29.888 144.66 55.937 282.61 168.65 359.51 297.808"/><path stroke="#8F61FF" d="M-661.311 478.275c-12.61-94.637 55.545-174.953 160.475-180.556 85.795-4.683 181.543 33.522 274.746 58.085 26.603 6.998 52.672 12.769 78.341 15.977 111.844 14.637 194.38-18.203 251.087-55.197 38.959-25.157 70-52.613 103.412-76.629 15.728-11.104 32.375-21.101 52.962-29.347 26.357-10.452 59.777-18.636 98.314-26.234 57.755-11.33 118.162-22.297 180.358-10.123 16.069 3.129 31.62 7.716 46.677 12.955 70.933 25.369 137.962 76.758 206.78 131.969 10.961 8.714 22.009 17.699 33.627 26.705 78.066 60.777 157.298 123.876 231.372 133.125 12.6 1.528 24.09 1.809 34.77.853 40.51-3.636 68.76-23.545 93.81-50.814 20.03-21.816 36.49-51.274 55.11-76.629a379.618 379.618 0 0 1 13.75-18.152c25.2-32.496 53.28-62.608 87.72-86.05 72.37-49.173 173.59-67.655 284.32-47.289 34.13 6.331 68.64 16.029 102.86 29.205 144.11 55.112 282.16 167.695 358.41 296.56"/><path stroke="#8E63FF" d="M-663.995 453.225c-8.669-92.885 60.183-171.03 164.183-177.337 85.15-5.377 180.387 30.797 273.318 54.948 26.417 6.857 52.671 12.769 78.142 16.238 111.995 15.984 195.505-11.186 254.202-41.534 40.154-20.553 72.751-42.72 106.962-61.609 16.041-8.812 33-16.518 53.999-22.601 26.658-7.758 60.478-13.379 99.363-19.891 58.277-9.702 117.865-21.905 178.707-12.195 15.71 2.445 31 6.217 45.882 10.914 70.086 21.85 137.408 69.762 206.93 123.656 10.874 8.442 22.306 17.307 33.837 26.042 78.758 59.862 155.502 123.543 229.09 136.128 12.49 2.061 23.88 2.875 34.63 2.592 40.44-1.223 70.03-18.266 96.54-43.605 21.13-20.166 38.52-48.919 57.33-74.133l13.75-18.153c25.2-32.496 52.62-62.899 86.4-86.634 71.07-50.159 171.65-69.335 281.83-49.793 33.86 5.918 68.36 15.616 102.59 28.39 143.86 54.298 281.72 166.739 357.31 295.313"/><path stroke="#8E65FF" d="M-666.492 428.314c-5.014-91.143 64.535-167.116 167.989-174.247 84.691-5.931 179.331 27.941 271.889 51.81 26.417 6.857 52.573 12.9 78.032 16.77 111.86 17.322 196.629-4.169 257.217-27.74 41.349-15.948 75.402-32.696 110.425-46.86 16.069-6.53 33.626-11.934 54.752-15.867 27.144-4.923 61.277-8.252 100.51-13.677 58.8-8.073 117.469-21.383 177.156-14.398 15.535 1.902 30.279 4.85 44.9 8.732 69.327 18.603 136.854 62.765 207.08 115.343 11.072 8.182 22.417 16.775 33.948 25.51 79.166 58.938 153.891 123.35 226.724 139.262 12.27 2.724 23.83 4.081 34.47 4.331 40.47 1.059 71.41-13.119 99.37-36.124 22.22-18.517 40.54-46.566 59.53-71.639 4.65-6.138 9.2-12.145 13.84-17.881 25.1-32.365 51.68-63.202 85-87.489 69.86-50.874 169.7-71.016 279.25-52.571 33.77 5.647 68.19 15.074 102.23 27.707 143.6 53.483 281.09 165.643 356.3 293.935"/><path stroke="#8D67FF" d="M-668.99 403.405c-1.072-89.391 69.074-163.062 171.697-171.028 84.046-6.625 178.274 25.086 270.646 48.814 26.417 6.857 52.387 12.759 77.834 17.031 111.726 18.658 197.754 2.848 260.332-14.077 42.644-11.474 78.054-22.673 113.789-31.981 16.382-4.238 34.065-7.49 55.69-8.99 27.631-2.088 61.978-2.995 101.559-7.334 59.224-6.314 117.173-20.992 175.32-16.611a317.036 317.036 0 0 1 44.105 6.69c68.48 15.084 136.387 56.041 207.23 107.031 11.171 8.051 22.429 16.373 34.344 24.987C923.414 415.961 995.738 481.226 1068 500.204c12.17 3.256 23.52 5.276 34.33 6.069 40.5 3.341 72.77-7.971 102.19-28.643 23.5-16.727 42.56-44.212 61.93-69.004 4.55-6.007 9.38-12.004 13.83-17.88 25.19-32.094 51.03-63.495 83.51-88.215 68.55-51.86 167.66-72.967 276.75-55.075 33.59 5.506 67.92 14.661 101.88 27.023 143.14 52.528 280.63 164.688 355.19 292.687"/><path stroke="#8D69FF" d="M-671.587 378.625c2.77-87.508 73.427-159.148 175.405-167.809 83.587-7.178 177.119 22.361 269.218 45.677 26.33 6.586 52.288 12.889 77.636 17.293 111.876 20.005 198.877 9.865 263.348-.284 43.838-6.87 80.519-12.79 117.339-16.961 16.595-1.816 34.69-2.906 56.54-2.386 27.933.607 62.778 2.133 102.608-.99 59.932-4.544 116.591-20.61 173.67-18.683 14.815.535 29.223 1.994 43.223 4.378 67.632 11.565 135.832 49.044 207.479 98.588a18527.543 18527.543 0 0 1 34.553 24.323c80.265 57.1 150.385 122.956 221.888 145.26 12.05 3.789 23.29 6.342 34.18 7.808 40.43 5.753 74.23-2.552 104.92-21.433 24.59-15.078 44.59-41.859 64.04-66.379 4.74-5.866 9.29-11.873 13.92-17.609 25.09-31.964 50.08-63.797 82.01-88.94 67.25-52.846 165.72-74.647 274.26-57.58 33.5 5.235 67.56 13.978 101.51 26.339 142.79 51.845 280.19 163.733 354.1 291.44"/><path stroke="#8C6BFF" d="M-674.085 353.715c6.526-85.897 77.966-155.093 179.113-164.589 82.942-7.872 176.062 19.505 267.975 42.68 26.33 6.586 52.102 12.749 77.439 17.554 111.741 21.342 199.914 16.611 266.363 13.509 45.22-2.123 83.084-3.037 120.802-2.211 16.722.335 35.217 1.808 57.479 4.49 28.518 3.311 63.577 7.26 103.657 5.353 60.454-2.915 116.294-20.218 172.119-20.886 14.454-.148 28.687.768 42.426 2.337 66.786 8.047 135.464 42.189 207.629 90.276a1584.357 1584.357 0 0 1 34.664 23.791c80.958 56.185 148.779 122.763 219.609 148.263 11.76 4.181 23.07 7.407 34.04 9.547 40.45 8.034 75.6 2.595 107.74-13.953 25.69-13.428 46.51-39.374 66.43-63.743 4.74-5.866 9.48-11.733 13.93-17.609 25.09-31.964 49.42-64.089 80.6-89.795 65.85-53.702 163.77-76.328 271.77-60.085 33.41 4.963 67.28 13.565 101.15 25.655 142.53 51.03 279.56 162.636 352.99 290.193"/><path stroke="#8C6EFF" d="M-676.583 328.805c10.368-84.014 82.319-151.18 182.92-161.5 82.581-8.556 175.005 16.65 266.546 39.543 26.144 6.445 52.003 12.879 77.241 17.815 111.607 22.679 201.038 23.628 269.478 27.172 46.415 2.481 85.55 6.846 124.352 12.808 16.849 2.487 35.842 6.393 58.33 11.096 29.005 6.145 64.277 12.517 104.804 11.565 60.977-1.286 115.998-19.826 170.469-22.957 14.38-.823 28.067-.731 41.631.296 65.939 4.527 134.91 35.192 207.78 81.962 11.38 7.388 22.848 15.047 34.873 23.128 81.465 55.131 146.979 122.431 217.239 151.397 11.65 4.714 22.85 8.473 33.89 11.286 40.29 10.176 76.87 7.874 110.48-6.743 26.77-11.779 48.53-37.021 68.64-61.249 4.73-5.866 9.47-11.732 14.11-17.468 24.99-31.833 48.48-64.391 79.29-90.379 64.54-54.688 161.92-78.138 269.37-62.721 33.22 4.823 67.01 13.153 100.79 24.972 142.08 50.074 279.11 161.681 351.99 288.815"/><path stroke="#8B70FF" d="M-679.081 303.894c14.309-82.261 86.956-147.255 186.628-158.28 82.122-9.109 173.849 13.925 265.118 36.406 26.144 6.444 51.817 12.738 77.042 18.076 111.758 24.026 202.163 30.644 272.494 40.965 47.709 6.955 87.829 16.588 127.716 27.688 17.162 4.779 36.468 10.976 59.268 17.971 29.492 8.981 65.077 17.644 105.854 17.909 61.4.473 115.601-19.304 168.818-25.029 14.02-1.506 27.533-1.957 40.65-1.886 64.906.868 134.257 28.326 207.743 73.509 11.393 6.985 23.145 14.654 35.084 22.464 81.97 54.076 145.366 122.239 214.956 154.401 11.54 5.247 22.54 9.669 33.65 13.156 40.32 12.457 78.42 13.162 113.3.737 27.77-9.999 50.55-34.667 70.93-58.482a363.623 363.623 0 0 0 14.02-17.338c24.89-31.702 47.82-64.683 77.79-91.104 63.24-55.674 159.97-79.819 266.87-65.226 33.14 4.551 66.85 12.61 100.63 24.429 141.81 49.26 278.75 160.595 350.88 287.567"/><path stroke="#8B72FF" d="M-681.677 279.115c18.151-80.379 91.309-143.342 190.335-155.061 81.477-9.803 172.793 11.07 263.875 33.41 26.144 6.444 51.718 12.868 76.845 18.337 111.623 25.363 203.286 37.661 275.608 54.628 48.905 11.56 90.307 26.069 131.365 42.577 17.103 6.789 37.093 15.561 60.02 24.707 29.979 11.815 65.964 23.043 106.903 24.252 62.108 2.243 115.119-19.053 167.168-27.101a326.103 326.103 0 0 1 39.855-3.927c64.059-2.651 133.888 21.47 207.893 65.196a1386.727 1386.727 0 0 1 35.293 21.801c82.564 53.292 143.567 121.905 212.397 157.394a290.897 290.897 0 0 0 33.5 14.895c40.35 14.739 79.8 18.31 116.04 7.946 29.05-8.208 52.57-32.313 73.14-55.987 4.92-5.726 9.66-11.592 14.2-17.197 24.98-31.431 46.88-64.986 76.39-91.96 61.84-56.53 157.84-81.64 264.2-67.871 32.86 4.138 66.56 12.197 100.26 23.744 141.45 48.577 278.31 159.64 349.77 286.321"/><path stroke="#8A74FF" d="M-684.175 254.205c21.906-78.767 95.848-139.288 194.043-151.841 81.018-10.357 171.736 8.214 262.447 30.272 25.958 6.304 51.718 12.869 76.734 18.87 111.488 26.699 204.323 44.407 278.624 68.421 50.1 16.165 92.685 35.68 134.729 57.457 17.415 9.081 37.619 20.275 61.057 31.452 30.279 14.509 66.763 28.17 108.05 30.465 62.631 3.872 114.723-18.53 165.617-29.304 13.299-2.874 26.29-4.954 38.972-6.24 63.212-6.169 133.235 14.605 208.142 56.754 11.689 6.593 23.553 13.73 35.404 21.268 83.071 52.237 141.966 121.713 210.126 160.398 11.22 6.442 22.27 11.94 33.35 16.633 40.38 17.021 81.07 23.588 118.86 15.427 30.14-6.559 54.5-29.828 75.35-53.493 4.92-5.725 9.74-11.32 14.1-17.066 24.88-31.3 46.12-65.147 74.89-92.685 60.54-57.516 155.99-83.45 261.7-70.376 32.68 3.998 66.4 11.655 99.91 23.061 141 47.621 277.67 158.544 348.67 285.073"/><path stroke="#8A76FF" d="M-686.673 229.295c25.749-76.884 100.201-135.373 197.85-148.751 80.373-11.051 170.581 5.488 261.105 27.406 25.958 6.303 51.433 12.858 76.536 19.131 111.64 28.046 205.448 51.424 281.739 82.084 51.394 20.639 95.262 45.03 138.279 72.477 17.542 11.232 38.245 24.859 61.809 38.187 30.766 17.344 67.464 33.427 109.285 36.95 63.153 5.5 114.427-18.139 163.967-31.376 13.125-3.417 25.756-6.181 38.177-8.281 62.179-9.83 132.681 7.608 208.292 48.44 11.602 6.322 23.564 13.328 35.8 20.746 83.763 51.323 140.164 121.38 207.854 163.402 10.92 6.834 22.05 13.005 33.2 18.372 40.41 19.302 82.44 28.735 121.59 22.636 31.24-4.909 56.52-27.475 77.65-50.727 5.11-5.584 9.74-11.32 14.28-16.925 24.88-31.3 45.29-65.58 73.39-93.41 59.24-58.502 154.05-85.13 259.32-73.011 32.59 3.726 66.12 11.242 99.54 22.377 140.74 46.806 277.23 157.588 347.56 283.825"/><path stroke="#8978FF" d="M-689.171 204.384c29.69-75.131 104.739-131.318 201.558-145.532 80.013-11.734 169.524 2.634 259.676 24.269 25.772 6.163 51.433 12.859 76.339 19.393 111.504 29.383 206.571 58.44 284.754 95.877 52.589 25.243 97.925 54.652 141.643 87.356C292.566 299 313.67 315.19 337.645 330.68c31.253 20.179 68.264 38.554 110.334 43.293 63.577 7.26 114.13-17.747 162.317-33.448 12.765-4.1 25.134-7.679 37.381-10.322 61.431-13.479 132.313.753 208.443 40.128 11.799 6.061 23.675 12.795 36.009 20.083 84.368 50.137 138.551 121.187 205.471 166.535 10.82 7.367 21.84 14.071 33.07 20.111 40.43 21.584 83.88 34.155 124.41 30.117 32.32-3.26 58.54-25.121 79.85-48.232 5.11-5.584 9.93-11.179 14.29-16.925 24.78-31.17 44.52-65.741 72.17-94.125 57.84-59.357 152.1-86.811 256.82-75.516 32.51 3.454 65.95 10.699 99.18 21.693 140.3 45.851 276.79 156.633 346.56 282.448"/><path stroke="#897AFF" d="M-691.669 179.475c33.347-73.39 109.191-127.536 205.266-142.313 79.368-12.428 168.467-.222 258.434 21.273 25.772 6.162 51.148 12.848 76.14 19.653C-40.273 108.95 55.78 143.274 135.942 187.76c53.784 29.848 100.687 64.143 145.291 102.246 17.993 15.273 39.397 34.158 63.599 51.668 31.739 23.014 69.062 43.681 111.382 49.637 64.285 9.029 113.548-17.366 160.766-35.651 12.405-4.785 24.513-9.177 36.4-12.505 60.398-17.138 131.659-6.112 208.592 31.816 11.899 5.93 23.972 12.403 36.12 19.55 84.776 49.213 136.758 120.854 203.018 169.398 10.7 7.9 21.61 15.136 32.73 21.709 40.46 23.866 85.25 39.302 127.14 37.327 33.42-1.611 60.57-22.768 82.25-45.597a370.387 370.387 0 0 0 14.37-16.654c24.87-30.898 43.69-66.174 70.68-94.849 56.53-60.344 150.25-88.622 254.32-78.022 32.32 3.314 65.49 10.146 98.82 21.01 139.94 45.167 276.34 155.678 345.46 281.2"/><path stroke="#887CFF" d="M-694.451 154.554c37.287-71.637 113.543-123.622 208.973-139.093 78.909-12.981 167.312-2.947 257.005 18.135 25.871 6.033 51.148 12.849 75.943 19.915 111.52 32.067 208.732 72.203 290.885 123.334 55.078 34.322 103.351 73.764 148.656 117.125 18.305 17.565 40.022 38.742 64.536 58.544 32.128 25.98 69.763 48.939 112.53 55.85 64.808 10.658 113.252-16.974 159.116-37.723 12.045-5.468 23.979-10.404 35.604-14.546 59.366-20.798 131.193-12.837 208.557 23.362 11.911 5.529 24.082 11.871 36.329 18.887 85.469 48.299 135.247 120.532 200.637 172.533a407.595 407.595 0 0 0 32.59 23.447c40.4 25.876 86.62 44.45 129.96 44.808 34.7.179 62.78-20.273 84.36-42.972 5.3-5.443 10.12-11.038 14.56-16.513 24.77-30.767 42.93-66.335 69.17-95.574 55.24-61.33 148.13-90.443 251.75-80.798 32.23 3.042 65.22 9.734 98.56 20.195 139.68 44.353 275.7 154.582 344.36 279.953"/><path stroke="#887FFF" d="M-696.949 129.644C-655.82 59.889-578.867 10.077-484.17-6.36c78.265-13.675 166.256-5.802 255.577 14.998 25.685 5.892 50.863 12.838 75.745 20.176 111.386 33.404 210.055 78.959 293.901 137.127 56.372 38.796 106.299 83.397 152.02 132.004 18.531 19.586 40.647 43.326 65.387 65.149 32.429 28.674 70.563 54.066 113.579 62.193 65.33 12.287 112.769-16.723 157.466-39.794 11.784-6.283 23.357-11.902 34.623-16.728 58.332-24.458 130.638-19.834 208.805 14.919 12.01 5.398 24.094 11.469 36.539 18.224 85.975 47.243 133.448 120.197 198.368 175.535 10.48 8.965 21.07 17.397 32.43 25.187 40.43 28.158 88.09 49.869 132.71 52.016 35.78 1.829 64.69-17.788 86.75-40.335 5.19-5.313 10.02-10.908 14.46-16.383 24.76-30.768 42.08-66.768 67.77-96.43 54.02-62.044 146.17-92.123 249.25-83.303 32.15 2.771 65.04 9.191 98.2 19.512 139.24 43.398 275.26 153.626 343.25 278.705"/><path stroke="#8781FF" d="M-699.447 104.734C-654.376 36.732-576.826-10.779-482.959-28.05c77.805-14.23 165.198-8.659 254.334 12.001 25.684 5.891 50.863 12.838 75.547 20.437C-41.641 39.27 58.1 90.364 143.937 155.178c57.568 43.401 108.963 93.018 155.669 146.894 18.844 21.878 41.174 48.041 66.326 72.025 32.915 31.509 71.263 59.323 114.628 68.536 65.753 14.047 112.373-16.2 155.914-41.997 11.609-6.826 22.736-13.4 33.926-18.899 57.399-28.248 130.27-26.69 208.955 6.606 12.208 5.136 24.392 11.077 36.651 17.691 86.664 46.33 131.934 119.875 195.994 178.67 10.36 9.497 20.84 18.462 32.29 26.925 40.45 30.44 89.45 55.017 135.52 59.498 36.78 3.609 66.72-15.435 88.96-37.842 5.2-5.313 10.2-10.766 14.64-16.241 24.67-30.637 41.34-66.93 66.28-97.155 52.72-63.03 144.33-93.934 246.76-85.808 31.77 2.489 64.77 8.779 97.84 18.828 138.87 42.714 274.81 152.671 342.43 277.469"/><path stroke="#8783FF" d="M-701.945 79.824c48.826-66.391 126.974-111.6 220.195-129.565 77.347-14.782 164.044-11.383 252.906 8.864 25.499 5.75 50.578 12.828 75.535 20.84C-41.907 16.05 58.994 72.956 146.722 144.546c58.763 48.005 111.813 102.781 159.033 161.773 19.256 24.039 41.614 52.484 67.078 78.76 33.402 34.344 72.063 64.451 115.677 74.88 66.462 15.816 112.076-15.809 154.264-44.069 11.249-7.509 22.016-14.768 33.131-20.94 56.365-31.908 129.617-33.556 209.105-1.707a401.166 401.166 0 0 1 36.86 17.028c87.07 45.405 130.43 119.552 193.72 181.674 10.07 9.889 20.81 19.668 32.14 28.663 40.58 32.591 90.72 60.295 138.44 66.848 37.88 5.259 68.74-13.08 91.07-35.216 5.38-5.172 10.21-10.767 14.65-16.241 24.57-30.507 40.49-67.363 64.96-97.739 51.42-64.017 142.38-95.614 244.27-88.313 31.68 2.218 64.59 8.236 97.48 18.144 138.61 41.899 274.36 151.716 341.32 276.221"/><path stroke="#8685FF" d="M-704.542 55.044c96.458-118.068 280.174-164.696 475.38-120.618C-11.008-16.241 176.553 129.12 311.62 310.555c45.179 60.528 107.386 146.491 184.84 166.729 84.814 22.114 133.787-36.356 184.763-69.263 63.761-40.898 152.187-41.328 246.325 6.345 101.722 51.569 140.542 144.067 223.152 215.07 40.61 34.872 92.09 65.442 141.08 74.187 48.23 8.584 85.22-20.535 108.2-48.55 24.65-30.235 39.73-67.525 63.56-98.595 65.63-85.103 200.83-114.433 338.89-73.358 138.16 40.945 273.73 150.62 340.22 274.974"/><path stroke="#8B88FB" d="M-705.622 72.312c48.475-60.903 118.301-104.4 201.397-127.158 81.275-22.287 175.371-24.793 272.955-3.694 74.253 15.963 145.499 43.624 212.274 81.052 63.13 35.283 121.739 78.855 174.855 128.133 39.884 36.993 76.44 77.22 110.361 119.766 14.119 17.683 27.656 35.747 40.897 54.203 16.157 22.72 34.685 48.88 55.626 73.785 35.631 42.608 79.024 83.082 128.451 96.271 53.392 14.136 93.475-4.004 127.829-27.718 20.282-14.025 38.531-30.002 57.069-42.883 16.88-11.465 35.299-20.325 55.147-26.048 44.872-12.87 96.811-10.726 152.688 9.404 10.632 3.738 21.526 8.29 32.309 13.375 58.884 27.751 98.234 70.091 137.224 114.834 27.67 31.856 54.94 64.637 89.63 94.198 1.2 1.116 2.5 2.103 3.7 3.219 40.37 33.657 90.45 63.371 138.21 71.803 32.53 5.737 60.14-5.207 81.63-21.604 11.09-8.454 20.51-18.578 28.13-28.634 8.79-11.22 16.1-23.567 23.03-36.197 12.36-22.495 23.21-45.716 37.52-66.531 16.88-24.612 38.88-45.15 64.65-61.392 47.56-29.945 109.04-45.032 177.18-41.095 29.52 1.602 60.26 7.005 91.08 15.766 11.97 3.518 23.93 7.438 35.78 11.89 128.55 47.842 250.2 152.32 310.85 268.547"/><path stroke="#8F8BF6" d="M-706.986 89.57c48.324-62.25 117.07-107.798 199.469-132.729 80.666-24.188 175.205-28.824 273.481-8.639 74.747 15.31 146.761 42.73 214.64 81.406 63.677 36.108 122.436 81.027 174.563 131.61 39.093 38.038 74.485 79.028 107.057 122.196 13.636 17.934 26.691 36.249 39.449 54.956 15.761 23.242 33.806 49.653 54.451 74.95 35.048 42.99 78.778 84.951 128.862 98.432 53.665 14.549 94.516-3.832 128.497-27.827 20.196-14.297 38.172-30.687 56.251-44.121 16.421-12.018 34.282-21.301 53.398-27.99 43.308-14.669 93.597-14.598 148.504 2.948 10.459 3.195 21.178 7.204 31.973 11.887 58.386 25.319 98.931 65.689 138.901 109.528 28.45 31.214 56.49 63.754 91.27 93.184 1.2 1.117 2.51 2.103 3.81 3.089 40.65 33.667 91.09 64.065 139.13 72.508 33.29 5.897 61.57-5.156 83.09-22.357 11.09-8.856 20.62-19.111 28.25-29.569 8.61-11.763 15.93-24.513 22.59-37.554 12-23.179 22.12-47.365 35.51-69.287 15.78-25.86 36.2-47.796 60.68-65.426 45.17-32.581 104.76-51.358 173.62-49.14 29.72.939 61.04 5.961 92.54 14.611a488.62 488.62 0 0 1 36.45 11.781c131.21 47.804 256.09 155.35 316.57 274.12"/><path stroke="#948DF2" d="M-708.164 106.968C-660.09 43.502-592.325-4.228-510.437-31.189c79.969-26.36 174.94-32.724 274.007-13.584 75.056 14.516 148.11 42.108 217.193 81.9 64.223 36.933 123.033 83.33 174.27 135.088 38.4 38.952 72.345 80.694 103.753 124.626 13.054 18.315 25.911 36.891 38.187 55.849 15.366 23.764 32.928 50.426 53.461 76.256 34.467 43.371 78.819 86.831 129.175 100.724 53.851 14.69 95.557-3.66 129.265-28.068 20.109-14.568 37.812-31.37 55.431-45.357 15.962-12.572 33.179-22.549 51.736-29.66 41.932-16.329 90.297-18.742 144.421-3.64 10.372 2.924 20.917 6.39 31.724 10.671 57.887 22.886 99.631 61.287 140.574 104.222 29.24 30.571 58.04 62.871 93.21 92.18 1.3.987 2.5 2.103 3.8 3.09 41.03 33.546 91.45 64.748 140.07 73.211 34.14 5.929 62.9-5.375 84.71-22.968 11.3-9.118 20.55-19.785 28.19-30.644 8.63-12.166 15.68-25.328 21.88-38.922 11.45-24.004 20.84-49.156 33.21-72.053 14.58-26.977 33.71-50.301 56.81-69.591 42.68-35.488 100.47-57.684 170.05-57.184 29.94.276 61.84 4.916 94.01 13.456 12.45 3.267 24.88 7.339 37.11 11.671 134.06 47.907 262 158.38 322.12 279.552"/><path stroke="#9990EE" d="M-709.343 124.367c48.11-64.673 114.51-114.465 195.8-143.728 79.36-28.26 174.774-36.755 274.632-18.66 75.551 13.864 149.56 41.356 219.46 82.385 64.77 37.757 123.73 85.501 173.792 138.425 37.707 39.866 70.105 82.492 100.548 126.925 12.572 18.566 24.847 37.523 36.924 56.742 15.069 24.157 31.951 51.33 52.287 77.421 33.885 43.753 78.573 88.701 129.587 102.886 53.937 14.961 96.597-3.488 129.933-28.178 20.022-14.84 37.352-31.923 54.612-46.594 15.404-12.994 32.161-23.525 49.987-31.602 40.269-17.999 87.084-22.614 140.238-10.096 10.197 2.381 20.755 5.445 31.387 9.183 57.104 20.442 100.232 57.016 142.256 98.916 30.01 29.929 59.48 62.118 95.04 91.308 1.3.986 2.5 2.102 3.8 3.089 41.5 33.697 92.09 65.442 140.71 73.905 34.9 6.091 64.33-5.324 86.25-23.449 11.4-9.248 20.76-20.448 28.13-31.72 8.35-12.578 15.22-26.282 21.34-40.149 10.9-24.828 19.56-50.946 31.1-74.678 13.48-28.224 31.03-52.947 52.94-73.755 40.39-38.254 96.19-64.01 166.2-65.239 30.25-.518 62.63 3.872 95.47 12.302 12.74 3.277 25.36 7.087 37.97 11.701 136.8 48.141 267.71 161.27 327.84 285.126"/><path stroke="#9D93E9" d="M-710.707 141.624c47.86-65.889 113.279-117.862 194.059-149.156 78.75-30.16 174.607-40.786 275.158-23.605C-165.445-17.927-90.669 9.325-19.664 51.6c65.316 38.582 124.427 87.673 173.499 141.903 36.916 40.91 68.15 84.299 97.244 129.355a1664.79 1664.79 0 0 1 35.377 57.625c14.674 24.679 31.072 52.104 51.111 78.586 33.403 44.004 78.328 90.57 129.9 105.178 54.025 15.233 97.452-3.458 130.788-28.147 19.836-14.981 36.992-32.607 53.793-47.832 14.945-13.547 31.243-24.63 48.424-33.401 38.892-19.659 83.783-26.759 136.055-16.553 10.023 1.837 20.407 4.359 30.952 7.825 56.605 18.01 100.833 52.745 143.931 93.61 30.79 29.286 61.03 61.235 96.87 90.435 1.3.986 2.5 2.103 3.81 3.089 41.88 33.577 92.55 65.996 141.63 74.61 35.48 6.111 65.76-5.273 87.89-24.061 11.41-9.65 20.87-20.981 28.25-32.655 8.37-12.979 14.96-27.097 20.72-41.647 10.45-25.784 18.47-52.595 28.9-77.575 12.56-29.33 28.54-55.451 49.26-77.779 37.91-41.16 92.2-70.326 162.64-73.283 30.45-1.181 63.42 2.827 96.74 11.007 12.83 3.146 25.93 7.108 38.73 11.46 139.47 48.103 273.61 164.301 333.39 290.559"/><path stroke="#A296E5" d="M-711.886 159.023c47.711-67.236 111.95-121.13 192.132-154.727 78.054-32.332 174.156-44.827 275.87-28.41 76.54 12.559 152.17 39.841 224.193 83.093 65.762 39.537 125.024 89.975 173.206 145.38 36.224 41.825 66.01 85.966 93.94 131.785 11.606 19.068 22.916 38.527 34.115 58.519 14.092 25.06 30.38 53.018 50.122 79.892 32.635 44.244 78.182 92.309 130.125 107.198 54.112 15.505 98.493-3.285 131.556-28.387 19.749-15.252 36.632-33.291 53.16-48.928 14.573-13.829 30.04-25.748 46.675-35.343 37.23-21.329 80.669-30.762 131.971-23.14 9.936 1.566 20.145 3.544 30.802 6.478 56.007 15.707 101.533 48.342 145.609 88.304 31.57 28.644 62.58 60.352 98.7 89.562 1.3.986 2.51 2.103 3.81 3.089 42.17 33.587 93.1 66.82 142.28 75.304 36.33 6.142 67.09-5.493 89.52-24.673 11.61-9.911 20.79-21.654 28.19-33.73 8.19-13.523 14.7-27.911 20.18-42.874 9.91-26.608 17.19-54.385 26.8-80.2 11.35-30.447 26.14-58.087 45.28-81.813 35.33-43.937 87.92-76.652 158.98-81.196 30.76-1.975 64.21 1.782 98.2 9.851 13.12 3.157 26.31 6.988 39.59 11.492 142.32 48.205 279.51 167.33 339.12 296.131"/><path stroke="#A799E1" d="M-713.151 176.15C-665.69 107.697-602.433 51.62-522.86 16.124c77.444-34.232 173.99-48.858 276.396-33.354 77.035 11.905 153.52 39.218 226.746 83.587 66.308 40.362 125.72 92.147 173.012 148.727 35.531 42.739 64.055 87.774 90.636 134.215 11.024 19.449 22.037 39.3 32.667 59.271 13.696 25.583 29.501 53.791 49.045 80.927 32.054 44.626 77.937 94.178 130.438 109.49 54.298 15.645 99.533-3.114 132.225-28.497 19.847-15.383 36.173-33.845 52.34-50.165 14.114-14.383 29.123-26.854 45.013-37.013 35.853-22.989 77.27-34.775 127.789-29.597 9.762 1.023 19.983 2.6 30.366 5.121 55.323 13.133 102.234 43.94 147.285 82.998 32.352 28.001 64.132 59.469 100.532 88.689 1.3.986 2.51 2.103 3.81 3.089 42.45 33.598 93.74 67.514 143.21 76.009 37.08 6.303 68.52-5.442 91.16-25.285 11.52-10.183 21-22.318 28.3-34.665 8.11-13.794 14.26-28.867 19.57-44.372 9.36-27.433 15.91-56.176 24.6-83.097 10.25-31.694 23.46-60.733 41.42-85.978 33.03-46.703 83.63-82.978 155.4-89.241 30.98-2.638 65.01.738 99.66 8.697 13.41 3.168 26.89 7.008 40.26 11.382 145.17 48.308 285.22 170.22 344.85 301.705"/><path stroke="#AC9CDC" d="M-714.33 193.548c47.311-69.8 109.302-128.068 188.365-165.596 76.933-36.263 173.823-52.889 276.922-38.299C-171.601.633-94.075 28.12-20.031 73.724c66.855 41.187 126.417 94.319 172.72 152.205 34.74 43.784 61.914 89.441 87.332 136.644 10.542 19.7 21.072 39.802 31.404 60.166 13.301 26.105 28.623 54.564 48.057 82.232 31.472 45.007 77.79 95.917 130.75 111.782 54.386 15.917 100.476-2.811 132.993-28.738 19.76-15.654 35.813-34.528 51.521-51.402 13.556-14.805 27.919-27.97 43.264-38.954 34.191-24.659 73.97-38.919 123.606-36.054 9.588.481 19.635 1.514 30.03 3.634 54.725 10.831 103.021 39.809 149.148 77.833 33.136 27.358 65.486 58.444 102.176 87.675 1.31.986 2.61 1.972 4 3.23 42.84 33.477 94.1 68.198 144.14 76.713 37.84 6.464 69.85-5.662 92.69-25.766 11.72-10.444 21.11-22.85 28.24-35.741 7.94-14.337 14.1-29.811 19.03-45.599 8.92-28.388 14.83-57.825 22.49-85.722 9.15-32.942 20.98-63.238 37.55-90.142 30.56-49.61 79.35-89.304 151.84-97.285 31.19-3.301 65.8-.308 101.12 7.542 13.51 3.037 27.27 6.888 40.93 11.271 147.83 48.27 291.12 173.251 350.4 307.138"/><path stroke="#B09ED8" d="M-715.508 210.947c47.061-71.016 107.972-131.336 186.623-171.025 76.138-38.305 173.558-56.79 277.448-43.244C-173.5 7.005-95.02 34.39-20.058 81.103c67.4 42.011 127.014 96.621 172.241 155.541 34.047 44.698 59.96 91.249 84.127 138.944 10.059 19.951 20.107 40.303 29.956 60.918 12.905 26.627 27.745 55.337 46.882 83.397 30.989 45.258 77.73 97.927 131.162 113.944 54.658 16.329 101.516-2.64 133.847-28.707 19.673-15.926 35.639-35.071 50.603-52.509 13.283-15.217 27.001-29.077 41.515-40.896 32.628-26.459 70.856-42.922 119.708-42.5 9.501.209 19.373.7 29.594 2.277 54.128 8.528 103.722 35.407 150.827 72.527 33.916 26.715 66.936 57.692 104.016 86.802 1.3.986 2.6 1.972 4.09 3.099 43.12 33.488 94.75 68.892 144.79 77.407 38.4 6.485 71.27-5.61 94.32-26.378 11.91-10.705 21.04-23.523 28.28-36.946 7.94-14.739 13.83-30.626 18.59-46.956 8.37-29.214 13.55-59.616 20.2-88.489 7.94-34.058 18.29-65.883 33.68-94.307 28.25-52.376 75.17-95.76 147.99-105.339 31.49-4.095 66.58-1.352 102.58 6.387 13.79 3.047 27.84 6.909 41.78 11.303 150.68 48.373 296.92 176.411 356.13 312.711"/><path stroke="#B5A1D4" d="M-716.873 228.204c46.911-72.363 106.742-134.735 184.696-176.596 75.628-40.335 173.392-60.82 278.161-48.047 78.431 9.674 157.678 36.819 233.744 84.778 67.947 42.836 127.711 98.793 171.949 159.019 33.355 45.612 57.72 93.046 80.822 141.374a4291.046 4291.046 0 0 1 28.695 61.811c12.509 27.15 26.767 56.241 45.706 84.563 30.407 45.639 77.584 99.666 131.475 116.235 54.745 16.601 102.37-2.609 134.516-28.817 19.586-16.197 35.179-35.624 49.784-53.745 12.824-15.771 25.984-30.053 39.952-42.697 31.152-27.988 67.555-47.066 115.525-48.956 9.326-.334 19.025-.387 29.444.929 53.344 6.085 104.421 31.005 152.504 67.221 34.691 26.073 68.49 56.809 105.84 85.929 1.31.986 2.79 2.113 4.1 3.099 43.4 33.498 95.1 69.576 145.71 78.112 39.26 6.516 72.7-5.559 95.96-26.99 11.93-11.107 21.25-24.187 28.4-37.881 7.68-15.152 13.39-31.581 17.88-48.324 7.82-30.038 12.17-61.275 18.18-91.244 6.84-35.306 15.8-68.389 29.9-98.2 25.77-55.283 70.89-102.087 144.42-113.384 31.7-4.758 67.48-2.527 104.04 5.233 14.08 3.057 28.23 6.788 42.45 11.192 153.53 48.476 302.64 179.301 361.67 318.144"/><path stroke="#BAA4CF" d="M-718.051 245.603c46.661-73.58 105.412-138.003 182.954-182.025 75.019-42.236 173.04-64.992 278.786-53.124C-177.385 19.476-97.284 46.651-20.2 95.586c68.493 43.661 128.408 100.965 171.656 162.497 32.563 46.657 55.765 94.854 77.518 143.803 8.995 20.584 18.077 41.438 27.433 62.705 11.927 27.532 26.074 57.156 44.717 85.869 29.825 46.021 77.339 101.535 131.886 118.397 54.931 16.741 103.411-2.437 135.283-29.058 19.5-16.468 34.448-36.59 48.965-54.982 12.638-15.912 24.881-31.301 38.104-44.508 29.775-29.647 64.255-51.21 111.343-55.413 9.152-.877 18.764-1.2 29.107-.559 52.747 3.783 105.023 26.734 154.182 61.916 35.471 25.43 70.036 55.925 107.676 85.056l4.09 3.099c43.79 33.378 95.75 70.27 146.36 78.806 40.02 6.677 74.04-5.779 97.41-27.743 12.03-11.237 21.36-24.719 28.34-38.956 7.68-15.554 13.12-32.396 17.44-49.682 7.46-30.721 11.07-62.924 15.89-94.01 5.73-36.553 13.41-71.024 26.02-102.365 23.39-57.918 66.8-108.271 140.86-121.428 32.01-5.552 68.27-3.572 105.5 4.078 14.36 3.068 28.8 6.809 43.12 11.083 156.2 48.438 308.54 182.331 367.3 323.847"/><path stroke="#BEA7CB" d="M-719.415 262.86c46.697-74.786 104.181-141.401 181.027-187.595 74.409-44.136 172.873-69.022 279.311-58.068 79.421 8.368 160.476 35.444 238.565 85.757C48.527 147.44 108.592 206.091 150.85 268.929c31.871 47.57 53.625 96.52 74.215 146.232 8.512 20.835 17.297 42.081 25.984 63.458 11.531 28.054 25.196 57.929 43.542 87.033 29.243 46.403 77.093 103.406 132.013 120.549 55.018 17.013 104.451-2.266 135.952-29.168 19.412-16.74 34.36-36.861 48.332-56.079 11.992-16.605 23.863-32.276 36.54-46.307 28.113-31.318 61.141-55.214 107.259-62.001a160.328 160.328 0 0 1 28.672-1.916c52.149 1.481 105.723 22.332 155.859 56.609 36.251 24.788 71.581 55.042 109.511 84.183 1.3.987 2.79 2.114 4.09 3.1 44.26 33.529 96.21 70.823 147.29 79.51 40.78 6.839 75.47-5.727 98.94-28.224 12.23-11.499 21.47-25.252 28.47-39.891 7.69-15.956 12.86-33.21 16.71-51.049 7.02-31.677 9.8-64.715 13.78-96.635 4.54-37.67 10.73-73.67 22.16-106.53 20.9-60.825 62.51-114.597 137.19-129.342 32.22-6.215 69.06-4.617 106.78 2.783 14.56 2.806 29.28 6.557 43.97 11.113 159.05 48.54 314.44 185.362 373.03 329.421"/><path stroke="#C3AAC6" d="M-720.495 280.128c46.448-76.002 102.95-144.799 179.286-193.024 73.712-46.308 172.607-72.923 279.837-63.014 79.729 7.575 161.925 34.692 240.931 86.111 69.585 45.311 129.702 105.439 171.07 169.452 31.179 48.485 51.67 98.328 71.01 148.533 8.03 21.085 16.233 42.712 24.722 64.351 11.136 28.576 24.318 58.702 42.553 88.339 28.761 46.654 76.947 105.144 132.424 122.71 55.106 17.284 105.493-2.094 136.807-29.137 19.325-17.012 34.001-37.545 47.513-57.316 11.435-17.028 22.945-33.382 34.792-48.249 26.735-32.977 57.84-59.357 103.075-68.457 8.892-1.691 18.341-2.96 28.522-3.263 51.551-.822 106.423 17.93 157.636 51.173 37.129 24.014 73.027 54.289 111.437 83.179l4.09 3.099c44.55 33.54 96.76 71.649 148.04 80.074 41.53 7 76.8-5.947 100.58-28.835 12.23-11.901 21.49-26.057 28.39-40.968 7.43-16.368 12.52-34.296 16.29-52.406 6.47-32.501 8.52-66.504 11.58-99.532 3.43-38.917 8.24-76.175 18.19-110.563 18.42-63.733 58.33-121.054 133.63-137.386 32.34-7.15 69.85-5.662 108.23 1.627 14.84 2.817 29.85 6.579 44.64 11.004 161.9 48.643 320.34 188.392 378.58 334.853"/><path stroke="#C8ADC2" d="M-721.673 297.527c46.297-77.35 101.62-148.068 177.358-198.595 73.103-48.208 172.441-76.954 280.364-67.959 80.223 6.922 163.186 33.799 243.297 86.465 70.131 46.135 130.398 107.611 170.69 172.659 30.388 49.529 49.53 99.995 67.706 150.962 7.547 21.335 15.268 43.214 23.274 65.103 10.74 29.099 23.439 59.476 41.377 89.505 27.994 46.894 76.702 107.013 132.738 125.002 55.192 17.555 106.347-2.063 137.574-29.378 19.424-17.142 33.827-38.088 46.694-58.552 11.162-17.441 21.742-34.5 33.129-49.92 25.173-34.778 54.442-63.371 98.894-74.913 8.717-2.235 17.992-4.046 28.086-4.621 50.953-3.124 107.024 13.658 159.313 45.867 38.095 23.512 74.575 53.406 113.089 82.166 1.48 1.127 2.79 2.113 4.27 3.24 44.94 33.419 97.22 72.201 148.87 80.908 42.2 6.891 78.23-5.896 102.21-29.447 12.34-12.032 21.61-26.589 28.34-42.043 7.43-16.77 12.25-35.11 15.56-53.773 5.92-33.327 7.43-68.155 9.47-102.158 2.52-40.023 5.75-78.679 14.32-114.728 16.13-66.498 54.05-127.38 129.96-145.3 32.56-7.813 70.65-6.706 109.7.473a459.574 459.574 0 0 1 45.31 10.894c164.56 48.605 326.05 191.282 384.31 340.426"/><path stroke="#CCAFBE" d="M-723.038 314.784c46.147-78.696 100.39-151.466 175.617-204.024 72.593-50.238 172.275-80.984 281.076-72.762 80.718 6.268 164.635 33.045 245.664 86.818 70.776 46.83 131.094 109.783 170.397 176.136 29.881 50.585 47.389 101.662 64.402 153.392a3053.97 3053.97 0 0 0 22.012 65.998c10.158 29.479 22.561 60.248 40.301 90.538 27.511 47.145 76.742 108.893 133.149 127.164 55.564 17.837 107.388-1.892 138.243-29.488 19.337-17.414 33.367-38.641 45.875-59.79 10.702-17.993 20.824-35.605 31.38-51.86 23.697-36.307 51.327-67.374 94.809-81.501 8.543-2.777 17.83-4.991 27.75-6.109 50.356-5.426 107.725 9.257 160.991 40.561 38.874 22.87 75.936 52.382 114.922 81.293 1.48 1.127 2.79 2.113 4.27 3.24 45.22 33.429 97.77 73.026 149.8 81.613 42.95 7.052 79.56-6.116 103.85-30.059 12.53-12.292 21.71-27.121 28.45-42.977 7.45-17.172 11.99-35.925 15.13-55.131 5.48-34.282 6.15-69.945 7.18-104.924 1.31-41.14 3.06-81.325 10.63-118.751 13.65-69.406 49.77-133.707 126.21-153.485 32.77-8.477 71.44-7.752 111.16-.682 15.23 2.696 30.8 6.478 46.17 10.924 167.4 48.708 331.95 194.312 389.85 345.859"/><path stroke="#D1B2B9" d="M-724.216 332.183c45.897-79.913 98.874-154.875 173.591-209.464 71.797-52.28 171.823-85.026 281.601-77.708 81.213 5.616 166.083 32.293 248.117 87.444 71.323 47.654 131.692 112.085 170.105 179.614 29.189 51.499 45.336 103.6 61.098 155.821 6.669 22.11 13.238 44.349 20.749 66.891 9.763 30.003 21.869 61.163 39.313 91.845 26.929 47.527 76.496 110.762 133.461 129.455 55.652 18.109 108.429-1.719 139.011-29.728 19.151-17.554 33.007-39.325 45.055-61.026 10.145-18.417 19.807-36.582 29.818-53.662 22.319-37.967 48.026-71.518 90.626-87.957 8.369-3.32 17.569-5.806 27.315-7.466 49.758-7.729 108.425 4.854 162.668 35.255 39.654 22.227 77.483 51.499 116.748 80.42 1.49 1.127 2.79 2.113 4.38 3.109 45.5 33.44 98.41 73.72 150.44 82.307 43.71 7.214 80.99-6.064 105.38-30.54 12.54-12.695 21.83-27.654 28.39-44.053 7.18-17.584 11.55-36.88 14.41-56.498 4.93-35.107 4.87-71.735 5.17-107.68.21-42.387.57-83.83 6.76-122.916 11.25-72.041 45.77-140.022 122.65-161.529 33.07-9.271 72.23-8.796 112.61-1.837 15.52 2.707 31.19 6.358 46.84 10.814 170.07 48.67 337.85 197.343 395.58 351.433"/><path stroke="#9254FF" d="M-725.581 349.44c45.747-81.26 97.643-158.273 171.85-214.893 71.187-54.18 171.657-89.056 282.128-82.653 81.521 4.823 167.345 31.4 250.483 87.798 72.054 48.62 132.389 114.257 169.812 183.092 28.398 52.543 43.195 105.266 57.794 158.251 6.186 22.36 12.273 44.85 19.301 67.643 9.367 30.525 20.99 61.936 38.137 93.01 26.347 47.908 76.35 112.501 133.687 131.476 55.739 18.38 109.47-1.548 139.866-29.697 19.064-17.826 32.647-40.009 44.236-62.264 9.872-18.829 18.889-37.688 28.068-55.603 20.658-39.637 44.727-75.662 86.444-94.414 8.282-3.592 17.221-6.891 27.164-8.813 49.161-10.031 109.125.452 164.346 29.949 40.433 21.585 79.031 50.616 118.585 79.547 1.48 1.127 2.79 2.113 4.37 3.11 45.89 33.319 98.77 74.404 151.38 83.011 44.56 7.244 82.41-6.013 107.01-31.152 12.64-12.825 21.85-28.458 28.33-45.128 7.19-17.987 11.28-37.695 13.87-57.726 4.39-35.931 3.78-73.384 2.88-110.445-.9-43.635-2.01-86.607 2.79-126.95 8.77-74.949 41.49-146.349 118.98-169.444 33.28-9.933 73.02-9.84 114.08-2.991 15.79 2.717 31.75 6.379 47.69 10.845 172.91 48.773 343.47 200.363 401.31 357.006"/><path stroke="#9254FF" d="M-726.759 366.839c45.497-82.477 96.412-161.672 169.922-220.464 70.677-56.21 171.491-93.087 282.753-87.728 82.115 4.039 168.694 30.777 252.85 88.152 72.6 49.444 133.085 116.428 169.519 186.569 27.705 53.457 41.24 107.074 54.589 160.55 5.703 22.611 11.307 45.352 18.039 68.537 8.971 31.047 20.111 62.709 37.147 94.316 25.865 48.158 76.105 114.37 134.001 133.768 55.825 18.652 110.41-1.246 140.534-29.808 18.977-18.097 32.374-40.421 43.603-63.36 9.314-19.251 17.686-38.804 26.22-57.413 19.281-41.296 41.426-79.806 82.261-100.871 8.108-4.134 16.959-7.706 26.729-10.17 48.563-12.334 109.912-3.678 166.209 24.784 41.213 20.942 80.479 49.863 120.414 78.674 1.488 1.127 2.889 1.983 4.379 3.11 46.17 33.329 99.41 75.098 152.11 83.575 45.14 7.264 83.75-6.233 108.65-31.764 12.84-13.087 21.96-28.991 28.46-46.064 7.01-18.529 11.12-38.639 13.25-59.223 3.93-36.886 2.5-75.174.68-113.342-2.11-44.752-4.51-89.112-1.08-131.115 6.29-77.855 37.2-152.674 115.41-177.487 33.59-10.728 73.81-10.886 115.54-4.147 15.89 2.587 32.14 6.259 48.36 10.735 175.76 48.877 349.37 203.394 406.85 362.439"/><path stroke="#9254FF" d="M-727.938 384.238c45.348-83.824 95.083-164.94 168.182-225.893 70.067-58.111 171.324-97.118 283.278-92.673 82.61 3.385 170.143 30.024 255.216 88.505 73.147 50.269 133.683 118.731 169.041 189.906 27.013 54.371 39.1 108.741 51.285 162.98 5.121 22.992 10.429 46.126 16.591 69.29 8.39 31.428 19.233 63.482 35.972 95.48 25.283 48.541 75.86 116.24 134.313 136.06 56.011 18.793 111.266-1.214 141.302-30.048 18.89-18.368 32.014-41.105 42.784-64.596 9.041-19.664 16.768-39.912 24.657-59.215 17.619-42.966 38.126-83.95 78.177-107.458 7.934-4.677 16.797-8.65 26.393-11.658 47.965-14.635 110.711-8.211 167.886 19.479 42.091 20.168 82.026 48.979 122.246 77.8 1.488 1.127 3.075 2.124 4.377 3.11 46.638 33.481 99.868 75.651 152.948 84.41 45.89 7.426 85.17-6.182 110.28-32.376 12.85-13.488 22.07-29.523 28.49-47.269 6.92-18.801 10.86-39.454 12.72-60.45 3.39-37.711 1.22-76.965-1.43-115.968-3.21-45.999-7-91.617-4.95-135.279 3.99-80.622 32.92-159.001 111.75-185.401 33.8-11.391 74.6-11.93 117-5.301 16.18 2.596 32.71 6.279 49.02 10.625 178.43 48.838 355.27 206.424 412.59 368.012"/><path stroke="#9254FF" d="M-729.203 401.365c45.098-85.04 93.852-168.339 166.254-231.463 69.371-60.283 170.873-101.16 283.991-97.478 83.104 2.733 171.59 29.272 257.582 88.859 73.692 51.094 134.379 120.903 168.847 193.253 26.32 55.286 37.145 110.549 47.981 165.41 4.638 23.243 9.463 46.628 15.328 70.184 7.994 31.95 18.541 64.396 34.798 96.645 24.8 48.791 75.713 117.979 134.724 138.222 56.098 19.064 112.306-1.043 141.97-30.158 18.989-18.5 31.555-41.659 41.965-65.834 8.582-20.217 15.751-40.888 22.908-61.156 16.242-44.626 34.826-88.094 73.995-113.915 7.759-5.22 16.536-9.464 26.143-12.874 47.368-16.938 111.313-12.483 169.564 14.172 42.871 19.526 83.573 48.097 123.892 76.787 1.488 1.127 3.074 2.124 4.376 3.11 47.025 33.36 100.415 76.476 153.875 85.114 46.65 7.588 86.51-6.401 111.64-32.997 13.04-13.75 22.28-30.187 28.61-48.205 6.75-19.343 10.41-40.409 12.09-61.948 3.03-38.395.13-78.614-3.72-118.734-4.32-47.246-9.68-94.262-8.82-139.444 1.41-83.397 28.74-165.457 108-193.586 34.01-12.054 75.39-12.975 118.27-6.596 16.56 2.476 33.19 6.028 49.88 10.655 181.28 48.941 361.17 209.455 418.13 373.445"/><path stroke="#9254FF" d="M-730.382 418.763c45.134-86.247 92.523-171.606 164.513-236.893 68.762-62.183 170.707-105.19 284.517-102.422 83.599 2.08 172.853 28.379 260.035 89.485 74.239 51.918 135.076 123.074 168.555 196.73 25.529 56.331 35.004 112.216 44.677 167.84 4.156 23.494 8.399 47.259 13.88 70.936 7.413 32.332 17.663 65.169 33.808 97.951 24.504 49.183 75.654 119.989 135.037 140.514 56.186 19.336 113.347-.871 142.826-30.127 18.901-18.771 31.38-42.201 41.145-67.071 8.21-20.499 14.647-42.135 21.345-62.956 14.58-46.296 31.526-92.239 69.812-120.372 7.487-5.632 16.188-10.551 25.807-14.362 46.956-19.1 112.013-16.885 171.242 8.867 43.65 18.883 85.12 47.212 125.723 75.913 1.488 1.127 3.075 2.124 4.563 3.251 47.307 33.37 100.877 77.029 154.617 85.678 47.5 7.618 87.94-6.35 113.27-33.61 12.96-14.021 22.21-30.86 28.55-49.28 6.76-19.745 10.15-41.223 11.56-63.175 2.49-39.219-1.25-80.274-5.74-121.489-5.51-48.363-12.16-96.768-12.6-143.337-.88-86.164 24.65-171.643 104.44-201.631 34.32-12.848 76.18-14.02 119.73-7.751 16.66 2.346 33.76 6.049 50.55 10.546 184.13 49.044 366.88 212.344 423.86 379.018"/><path stroke="#9254FF" d="M-731.746 436.02c44.884-87.462 91.292-175.004 162.585-242.462C-500.91 129.344-398.62 84.337-284.118 86.191c83.908 1.285 174.203 27.756 262.402 89.838 74.785 52.742 135.673 125.376 168.262 200.208 24.836 57.244 32.95 114.154 41.373 170.269 3.673 23.745 7.433 47.762 12.618 71.83 7.017 32.854 16.784 65.943 32.732 98.986 23.736 49.423 75.507 121.728 135.448 142.675 56.459 19.748 114.388-.7 143.593-30.368 18.815-19.043 31.021-42.885 40.327-68.308 7.75-21.052 13.63-43.111 19.497-64.767 13.202-47.956 28.225-96.382 65.728-126.959a121.434 121.434 0 0 1 25.371-15.719c46.545-21.261 112.713-21.287 172.919 3.56 44.43 18.241 86.383 46.32 127.655 74.911 1.488 1.127 3.075 2.123 4.562 3.25 47.691 33.25 101.421 77.854 155.451 86.513 48.26 7.78 89.18-6.44 114.9-34.221 13.16-14.283 22.32-31.393 28.49-50.356 6.67-20.017 9.89-42.038 10.94-64.673 2.04-40.175-2.53-82.064-8.03-124.256-6.62-49.61-14.57-99.403-16.48-147.502-3.36-89.07 20.37-177.968 100.78-209.544 34.52-13.51 76.97-15.064 121.19-8.906 16.94 2.356 34.14 5.929 51.21 10.436 186.79 49.006 372.79 215.375 429.59 384.591"/><path stroke="#9254FF" d="M-732.925 453.419c44.734-88.81 90.061-178.403 160.845-247.892C-455.094 90.884-232.474 33.854-21.743 183.406c75.33 53.568 136.369 127.549 167.783 203.545 24.144 58.159 30.81 115.821 38.168 172.569 7.259 56.878 15.908 115.014 42.813 173.004 23.154 49.806 75.263 123.598 135.576 144.827 56.644 19.889 115.428-.528 144.261-30.478 34.215-35.123 45.802-86.356 57.442-136.113 11.639-49.756 24.826-100.395 61.545-133.415 43.165-38.824 125.944-47.641 199.818-18.812 46.807 18.192 91.103 47.429 134.049 77.288 47.978 33.26 102.068 78.548 156.198 87.076 48.82 7.801 90.7-6.518 116.53-34.833 27.41-30.001 37.33-72.844 39.01-117.19 3.21-89.236-24.82-186.71-30.48-278.547-5.65-91.837 16.09-184.294 97.21-217.589 48.02-19.732 111.89-15.95 174.72.406 189.64 49.109 378.69 218.405 435.13 390.024"/></g></svg>