<svg xmlns="http://www.w3.org/2000/svg" width="1919" height="349" fill="none"><path fill="url(#a)" fill-opacity=".5" d="m-33 91.036 54-14.63L81 65.27c80-8.698 238.5-34.56 398.5.233 160 34.794 320 121.777 480 86.984 160-34.794 332-118.916 492-145.01 160-26.096 313 20.45 393 72.64l128 95.224-53 151.112H-.5L-33 91.036Z"/><path fill="url(#b)" d="m-1 89.05 80-8.699c80-8.698 240-26.095 400 8.699 160 34.793 320 121.777 480 86.983 160-34.793 328-122.843 488-148.938C1607 1 1759 36.86 1839 89.05l80 52.19V350H-1V89.05Z"/><defs><linearGradient id="a" x1="959.5" x2="959.5" y1="-69.09" y2="326.455" gradientUnits="userSpaceOnUse"><stop stop-color="#A390C1"/><stop offset="1" stop-color="#CEB5EA" stop-opacity=".36"/></linearGradient><linearGradient id="b" x1="959" x2="959" y1="-45.545" y2="350" gradientUnits="userSpaceOnUse"><stop stop-color="#A390C1"/><stop offset="1" stop-color="#F0E8FA"/></linearGradient></defs></svg>